<?xml version="1.0" encoding="UTF-8" standalone="no"?>
<!DOCTYPE svg PUBLIC "-//W3C//DTD SVG 1.1//EN"
 "http://www.w3.org/Graphics/SVG/1.1/DTD/svg11.dtd">
<!-- Generated by graphviz version 14.1.3 (20260303.0454)
 -->
<!-- Title: metaharness Pages: 1 -->
<svg width="1264pt" height="689pt"
 viewBox="0.00 0.00 1264.00 689.00" xmlns="http://www.w3.org/2000/svg" xmlns:xlink="http://www.w3.org/1999/xlink">
<g id="graph0" class="graph" transform="scale(1 1) rotate(0) translate(36 653.15)">
<title>metaharness</title>
<polygon fill="white" stroke="none" points="-36,36 -36,-653.15 1227.79,-653.15 1227.79,36 -36,36"/>
<text xml:space="preserve" text-anchor="start" x="456.77" y="-594.2" font-family="Helvetica,sans-Serif" font-weight="bold" font-size="21.00" fill="#1a1a1a">The two&#45;clock metaharness</text>
<text xml:space="preserve" text-anchor="start" x="306.77" y="-581.75" font-family="Helvetica,sans-Serif" font-size="12.00" fill="#6b6357">Fast loop converges an artifact · slow loop turns run&#45;exhaust into permanent harness capital · follow the green</text>
<g id="clust1" class="cluster">
<title>cluster_fast</title>
<path fill="#faf8f3" stroke="#e3dccf" d="M71.9,-483.5C71.9,-483.5 644.89,-483.5 644.89,-483.5 650.89,-483.5 656.89,-489.5 656.89,-495.5 656.89,-495.5 656.89,-556.15 656.89,-556.15 656.89,-562.15 650.89,-568.15 644.89,-568.15 644.89,-568.15 71.89,-568.15 71.89,-568.15 65.9,-568.15 59.9,-562.15 59.9,-556.15 59.9,-556.15 59.9,-495.5 59.9,-495.5 59.9,-489.5 65.9,-483.5 71.9,-483.5"/>
<text xml:space="preserve" text-anchor="middle" x="358.39" y="-553.7" font-family="Helvetica,sans-Serif" font-size="11.00" fill="#6b6357">FAST CLOCK — converge one artifact (B)</text>
</g>
<g id="clust2" class="cluster">
<title>cluster_slow</title>
<path fill="#f2f8f3" stroke="#bfd9c4" d="M96.9,-8C96.9,-8 381.9,-8 381.9,-8 387.9,-8 393.89,-14 393.89,-20 393.89,-20 393.89,-279.75 393.89,-279.75 393.89,-285.75 387.89,-291.75 381.89,-291.75 381.89,-291.75 96.89,-291.75 96.89,-291.75 90.89,-291.75 84.9,-285.75 84.9,-279.75 84.9,-279.75 84.9,-20 84.9,-20 84.9,-14 90.9,-8 96.9,-8"/>
<text xml:space="preserve" text-anchor="middle" x="239.4" y="-277.3" font-family="Helvetica,sans-Serif" font-size="11.00" fill="#2e5a38">SLOW CLOCK — improve the harness (a self&#45;PR loop) → C</text>
</g>
<!-- human -->
<g id="node1" class="node">
<title>human</title>
<path fill="#ece3f5" stroke="#6b4e9e" stroke-width="1.8" d="M534.04,-186.1C534.04,-186.1 433.75,-186.1 433.75,-186.1 427.75,-186.1 421.75,-180.1 421.75,-174.1 421.75,-174.1 421.75,-162.1 421.75,-162.1 421.75,-156.1 427.75,-150.1 433.75,-150.1 433.75,-150.1 534.04,-150.1 534.04,-150.1 540.04,-150.1 546.04,-156.1 546.04,-162.1 546.04,-162.1 546.04,-174.1 546.04,-174.1 546.04,-180.1 540.04,-186.1 534.04,-186.1"/>
<text xml:space="preserve" text-anchor="middle" x="483.89" y="-163.65" font-family="Helvetica,sans-Serif" font-size="11.00" fill="#3f2e63">YOU — two altitudes</text>
</g>
<!-- chips -->
<g id="node3" class="node">
<title>chips</title>
<path fill="#ededed" stroke="#707070" stroke-width="1.3" d="M632.41,-535.03C632.41,-535.03 363.38,-535.03 363.38,-535.03 357.38,-535.03 351.38,-529.03 351.38,-523.03 351.38,-523.03 351.38,-508.63 351.38,-508.63 351.38,-502.63 357.38,-496.63 363.38,-496.63 363.38,-496.63 632.41,-496.63 632.41,-496.63 638.41,-496.63 644.41,-502.63 644.41,-508.63 644.41,-508.63 644.41,-523.03 644.41,-523.03 644.41,-529.03 638.41,-535.03 632.41,-535.03"/>
<text xml:space="preserve" text-anchor="middle" x="497.89" y="-517.38" font-family="Helvetica,sans-Serif" font-size="11.00">THE CHIPS THAT COMPOUND</text>
<text xml:space="preserve" text-anchor="middle" x="497.89" y="-505.38" font-family="Helvetica,sans-Serif" font-size="11.00">Lints · Judge rubric · Planner fix&#45;library · Controller policy</text>
</g>
<!-- human&#45;&gt;chips -->
<g id="edge7" class="edge">
<title>human&#45;&gt;chips</title>
<path fill="none" stroke="#4f8a5b" stroke-width="1.7" d="M484.62,-186.94C486.87,-242.59 493.79,-413.43 496.64,-483.92"/>
<polygon fill="#4f8a5b" stroke="#4f8a5b" stroke-width="1.7" points="493.14,-483.82 497.04,-493.67 500.13,-483.53 493.14,-483.82"/>
<text xml:space="preserve" text-anchor="middle" x="560.27" y="-335.7" font-family="Helvetica,sans-Serif" font-size="10.00" fill="#2e5a38">merged → bundle&#45;cache refresh</text>
<text xml:space="preserve" text-anchor="middle" x="560.27" y="-322.95" font-family="Helvetica,sans-Serif" font-size="10.00" fill="#2e5a38">→ next run inherits it free</text>
</g>
<!-- fast -->
<g id="node2" class="node">
<title>fast</title>
<path fill="#f1ece3" stroke="#9a9182" stroke-width="1.3" d="M307.54,-536.15C307.54,-536.15 84.25,-536.15 84.25,-536.15 78.25,-536.15 72.25,-530.15 72.25,-524.15 72.25,-524.15 72.25,-507.5 72.25,-507.5 72.25,-501.5 78.25,-495.5 84.25,-495.5 84.25,-495.5 307.54,-495.5 307.54,-495.5 313.54,-495.5 319.54,-501.5 319.54,-507.5 319.54,-507.5 319.54,-524.15 319.54,-524.15 319.54,-530.15 313.54,-536.15 307.54,-536.15"/>
<text xml:space="preserve" text-anchor="middle" x="195.9" y="-518.5" font-family="Helvetica,sans-Serif" font-size="11.00">Planner → Maker → Render → Lints → Judge</text>
<text xml:space="preserve" text-anchor="middle" x="195.9" y="-504.25" font-family="Helvetica,sans-Serif" font-size="11.00">governed by the deterministic Controller</text>
</g>
<!-- fast&#45;&gt;human -->
<g id="edge5" class="edge">
<title>fast&#45;&gt;human</title>
<path fill="none" stroke="#9a9182" stroke-width="1.4" stroke-dasharray="5,2" d="M296.82,-494.93C336.24,-481.61 377.33,-459.51 399.89,-423 412.23,-403.04 406.08,-392.84 399.89,-370.2 396.5,-357.75 388.54,-357.65 385.14,-345.2 382.16,-334.27 381.9,-330.56 385.14,-319.7 399.61,-271.25 435.21,-223.92 459.47,-195.62"/>
<polygon fill="#9a9182" stroke="#9a9182" stroke-width="1.4" points="461.86,-198.2 465.81,-188.37 456.59,-193.59 461.86,-198.2"/>
<text xml:space="preserve" text-anchor="middle" x="433.52" y="-334.2" font-family="Helvetica,sans-Serif" font-size="10.00" fill="#6b6357">taste fork (per artifact,</text>
<text xml:space="preserve" text-anchor="middle" x="433.52" y="-322.95" font-family="Helvetica,sans-Serif" font-size="10.00" fill="#6b6357">gets rarer over time)</text>
</g>
<!-- ledger -->
<g id="node4" class="node">
<title>ledger</title>
<path fill="#ececec" stroke="#707070" stroke-width="1.7" d="M383.79,-418.2C383.79,-420.85 297.78,-423 191.9,-423 86.01,-423 0,-420.85 0,-418.2 0,-418.2 0,-375 0,-375 0,-372.35 86.01,-370.2 191.9,-370.2 297.78,-370.2 383.79,-372.35 383.79,-375 383.79,-375 383.79,-418.2 383.79,-418.2"/>
<path fill="none" stroke="#707070" stroke-width="1.7" d="M383.79,-418.2C383.79,-415.55 297.78,-413.4 191.9,-413.4 86.01,-413.4 0,-415.55 0,-418.2"/>
<text xml:space="preserve" text-anchor="middle" x="191.9" y="-398.15" font-family="Helvetica,sans-Serif" font-size="11.00">LEDGER — the capital account (cross&#45;run)</text>
<text xml:space="preserve" text-anchor="middle" x="191.9" y="-386.15" font-family="Helvetica,sans-Serif" font-size="11.00">run · pass · signature · batch · scores | reject_reason · Δ · rubric_SHA · cost</text>
</g>
<!-- fast&#45;&gt;ledger -->
<g id="edge1" class="edge">
<title>fast&#45;&gt;ledger</title>
<path fill="none" stroke="#9a9182" stroke-width="1.4" d="M195.22,-494.94C194.67,-478.79 193.87,-455.53 193.2,-435.8"/>
<polygon fill="#9a9182" stroke="#9a9182" stroke-width="1.4" points="196.7,-435.76 192.86,-425.88 189.7,-436 196.7,-435.76"/>
<text xml:space="preserve" text-anchor="middle" x="245.75" y="-461" font-family="Helvetica,sans-Serif" font-size="10.00" fill="#6b6357">writes every pass</text>
<text xml:space="preserve" text-anchor="middle" x="245.75" y="-449.75" font-family="Helvetica,sans-Serif" font-size="10.00" fill="#6b6357">(incl. rejects + reasons)</text>
</g>
<!-- detect -->
<g id="node5" class="node">
<title>detect</title>
<path fill="#e1efe3" stroke="#4f8a5b" stroke-width="1.3" d="M274.17,-294.7C274.17,-294.7 171.62,-294.7 171.62,-294.7 165.62,-294.7 159.62,-288.7 159.62,-282.7 159.62,-282.7 159.62,-256.3 159.62,-256.3 159.62,-250.3 165.62,-244.3 171.62,-244.3 171.62,-244.3 274.17,-244.3 274.17,-244.3 280.17,-244.3 286.17,-250.3 286.17,-256.3 286.17,-256.3 286.17,-282.7 286.17,-282.7 286.17,-288.7 280.17,-294.7 274.17,-294.7"/>
<text xml:space="preserve" text-anchor="middle" x="222.9" y="-277.05" font-family="Helvetica,sans-Serif" font-size="11.00" fill="#2e5a38">Mine exhaust:</text>
<text xml:space="preserve" text-anchor="middle" x="222.9" y="-265.05" font-family="Helvetica,sans-Serif" font-size="11.00" fill="#2e5a38">recurring Judge catch</text>
<text xml:space="preserve" text-anchor="middle" x="222.9" y="-253.05" font-family="Helvetica,sans-Serif" font-size="11.00" fill="#2e5a38">for a signature</text>
</g>
<!-- ledger&#45;&gt;detect -->
<g id="edge2" class="edge">
<title>ledger&#45;&gt;detect</title>
<path fill="none" stroke="#4f8a5b" stroke-width="1.4" d="M198.39,-369.37C202.91,-351.13 209,-326.58 213.97,-306.51"/>
<polygon fill="#4f8a5b" stroke="#4f8a5b" stroke-width="1.4" points="217.31,-307.6 216.32,-297.05 210.51,-305.91 217.31,-307.6"/>
<text xml:space="preserve" text-anchor="middle" x="240.92" y="-328.57" font-family="Helvetica,sans-Serif" font-size="10.00" fill="#2e5a38">reads exhaust</text>
</g>
<!-- gate -->
<g id="node6" class="node">
<title>gate</title>
<path fill="#e1efe3" stroke="#4f8a5b" stroke-width="1.3" d="M320.42,-193.3C320.42,-193.3 147.38,-193.3 147.38,-193.3 141.38,-193.3 135.38,-187.3 135.38,-181.3 135.38,-181.3 135.38,-154.9 135.38,-154.9 135.38,-148.9 141.38,-142.9 147.38,-142.9 147.38,-142.9 320.42,-142.9 320.42,-142.9 326.42,-142.9 332.42,-148.9 332.42,-154.9 332.42,-154.9 332.42,-181.3 332.42,-181.3 332.42,-187.3 326.42,-193.3 320.42,-193.3"/>
<text xml:space="preserve" text-anchor="middle" x="233.9" y="-175.65" font-family="Helvetica,sans-Serif" font-size="11.00" fill="#2e5a38">Promotion gate (min&#45;not&#45;mean)</text>
<text xml:space="preserve" text-anchor="middle" x="233.9" y="-163.65" font-family="Helvetica,sans-Serif" font-size="11.00" fill="#2e5a38">fires on NONE of the exemplar bank</text>
<text xml:space="preserve" text-anchor="middle" x="233.9" y="-151.65" font-family="Helvetica,sans-Serif" font-size="11.00" fill="#2e5a38">+ ≥N distinct runs + deterministic</text>
</g>
<!-- detect&#45;&gt;gate -->
<g id="edge3" class="edge">
<title>detect&#45;&gt;gate</title>
<path fill="none" stroke="#4f8a5b" stroke-width="1.4" d="M225.64,-243.67C226.93,-232.08 228.48,-218.06 229.89,-205.31"/>
<polygon fill="#4f8a5b" stroke="#4f8a5b" stroke-width="1.4" points="233.33,-206.04 230.95,-195.72 226.37,-205.27 233.33,-206.04"/>
</g>
<!-- pr -->
<g id="node7" class="node">
<title>pr</title>
<path fill="#e1efe3" stroke="#4f8a5b" stroke-width="1.3" d="M331.79,-70.4C331.79,-70.4 212,-70.4 212,-70.4 206,-70.4 200,-64.4 200,-58.4 200,-58.4 200,-32 200,-32 200,-26 206,-20 212,-20 212,-20 331.79,-20 331.79,-20 337.79,-20 343.79,-26 343.79,-32 343.79,-32 343.79,-58.4 343.79,-58.4 343.79,-64.4 337.79,-70.4 331.79,-70.4"/>
<text xml:space="preserve" text-anchor="middle" x="271.89" y="-52.75" font-family="Helvetica,sans-Serif" font-size="11.00" fill="#2e5a38">Draft a PULL REQUEST</text>
<text xml:space="preserve" text-anchor="middle" x="271.89" y="-40.75" font-family="Helvetica,sans-Serif" font-size="11.00" fill="#2e5a38">new lint + regression test</text>
<text xml:space="preserve" text-anchor="middle" x="271.89" y="-28.75" font-family="Helvetica,sans-Serif" font-size="11.00" fill="#2e5a38">+ rubric&#45;version bump</text>
</g>
<!-- gate&#45;&gt;pr -->
<g id="edge4" class="edge">
<title>gate&#45;&gt;pr</title>
<path fill="none" stroke="#4f8a5b" stroke-width="1.4" d="M241.68,-142.34C247.11,-125.06 254.44,-101.73 260.53,-82.37"/>
<polygon fill="#4f8a5b" stroke="#4f8a5b" stroke-width="1.4" points="263.83,-83.54 263.49,-72.95 257.15,-81.44 263.83,-83.54"/>
</g>
<!-- pr&#45;&gt;human -->
<g id="edge6" class="edge">
<title>pr&#45;&gt;human</title>
<path fill="none" stroke="#4f8a5b" stroke-width="1.4" d="M315.46,-71.04C352.62,-92.24 405.7,-122.51 442.29,-143.37"/>
<polygon fill="#4f8a5b" stroke="#4f8a5b" stroke-width="1.4" points="440.35,-146.3 450.77,-148.21 443.82,-140.22 440.35,-146.3"/>
<text xml:space="preserve" text-anchor="middle" x="444.13" y="-108.4" font-family="Helvetica,sans-Serif" font-size="10.00" fill="#2e5a38">ratify = merge the PR</text>
<text xml:space="preserve" text-anchor="middle" x="444.13" y="-97.15" font-family="Helvetica,sans-Serif" font-size="10.00" fill="#2e5a38">(rare · permanent)</text>
</g>
<!-- note -->
<g id="node8" class="node">
<title>note</title>
<polygon fill="#fffdf8" stroke="#d8d2c7" stroke-width="1.3" points="1185.79,-534.28 676,-534.28 676,-497.38 1191.79,-497.38 1191.79,-528.28 1185.79,-534.28"/>
<polyline fill="none" stroke="#d8d2c7" stroke-width="1.3" points="1185.79,-534.28 1185.79,-528.28"/>
<polyline fill="none" stroke="#d8d2c7" stroke-width="1.3" points="1191.79,-528.28 1185.79,-528.28"/>
<text xml:space="preserve" text-anchor="middle" x="933.89" y="-517.58" font-family="Helvetica,sans-Serif" font-size="10.00" fill="#6b6357">C&#45;signal: escalation&#45;rate per run falls while min&#45;quality holds, and judge&#45;tokens per run fall.</text>
<text xml:space="preserve" text-anchor="middle" x="933.89" y="-506.33" font-family="Helvetica,sans-Serif" font-size="10.00" fill="#6b6357">The Maker gets no green landing — never mutate the executor, only what it&#39;s told / checked against / stopped by.</text>
</g>
</g>
</svg>
