<?xml version="1.0" encoding="UTF-8" standalone="no"?>
<!DOCTYPE svg PUBLIC "-//W3C//DTD SVG 1.1//EN"
 "http://www.w3.org/Graphics/SVG/1.1/DTD/svg11.dtd">
<!-- Generated by graphviz version 14.1.3 (20260303.0454)
 -->
<!-- Title: harness Pages: 1 -->
<svg width="693pt" height="985pt"
 viewBox="0.00 0.00 693.00 985.00" xmlns="http://www.w3.org/2000/svg" xmlns:xlink="http://www.w3.org/1999/xlink">
<g id="graph0" class="graph" transform="scale(1 1) rotate(0) translate(36 949.44)">
<title>harness</title>
<polygon fill="white" stroke="none" points="-36,36 -36,-949.44 656.96,-949.44 656.96,36 -36,36"/>
<text xml:space="preserve" text-anchor="start" x="149.23" y="-890.49" font-family="Helvetica,sans-Serif" font-weight="bold" font-size="21.00" fill="#1a1a1a">The governed loop (one artifact)</text>
<text xml:space="preserve" text-anchor="start" x="98.61" y="-878.04" font-family="Helvetica,sans-Serif" font-size="12.00" fill="#6b6357">Planner → Maker → Render → Lints → Judge, then the Controller decides once</text>
<!-- controller -->
<g id="node1" class="node">
<title>controller</title>
<path fill="#ececec" stroke="#707070" stroke-width="1.9" d="M255.86,-864.94C255.86,-864.94 18.37,-864.94 18.37,-864.94 12.37,-864.94 6.38,-858.94 6.38,-852.94 6.38,-852.94 6.38,-835.6 6.38,-835.6 6.38,-829.6 12.38,-823.6 18.38,-823.6 18.38,-823.6 255.86,-823.6 255.86,-823.6 261.86,-823.6 267.86,-829.6 267.86,-835.6 267.86,-835.6 267.86,-852.94 267.86,-852.94 267.86,-858.94 261.86,-864.94 255.86,-864.94"/>
<text xml:space="preserve" text-anchor="middle" x="137.12" y="-845.62" font-family="Helvetica,sans-Serif" font-size="12.00" fill="#2a2a2a">CONTROLLER &#160;(deterministic — no LLM)</text>
<text xml:space="preserve" text-anchor="middle" x="137.12" y="-832.87" font-family="Helvetica,sans-Serif" font-size="12.00" fill="#2a2a2a">budget · best&#45;so&#45;far · rollback · stopping rules</text>
</g>
<!-- planner -->
<g id="node2" class="node">
<title>planner</title>
<path fill="#f6e0d6" stroke="#c2613f" stroke-width="1.3" d="M584.21,-872.44C584.21,-872.44 431.48,-872.44 431.48,-872.44 425.48,-872.44 419.48,-866.44 419.48,-860.44 419.48,-860.44 419.48,-828.1 419.48,-828.1 419.48,-822.1 425.48,-816.1 431.48,-816.1 431.48,-816.1 584.21,-816.1 584.21,-816.1 590.21,-816.1 596.21,-822.1 596.21,-828.1 596.21,-828.1 596.21,-860.44 596.21,-860.44 596.21,-866.44 590.21,-872.44 584.21,-872.44"/>
<text xml:space="preserve" text-anchor="middle" x="507.85" y="-853.12" font-family="Helvetica,sans-Serif" font-size="12.00" fill="#7a3a22">Planner</text>
<text xml:space="preserve" text-anchor="middle" x="507.85" y="-840.37" font-family="Helvetica,sans-Serif" font-size="12.00" fill="#7a3a22">reads ledger → worst&#45;quality</text>
<text xml:space="preserve" text-anchor="middle" x="507.85" y="-825.37" font-family="Helvetica,sans-Serif" font-size="12.00" fill="#7a3a22">fix&#45;batch (skips dead fixes)</text>
</g>
<!-- controller&#45;&gt;planner -->
<g id="edge6" class="edge">
<title>controller&#45;&gt;planner</title>
<path fill="none" stroke="#9a9182" stroke-width="1.4" d="M268.63,-844.27C314.08,-844.27 364.31,-844.27 406.88,-844.27"/>
<polygon fill="#9a9182" stroke="#9a9182" stroke-width="1.4" points="406.85,-847.77 416.85,-844.27 406.85,-840.77 406.85,-847.77"/>
<text xml:space="preserve" text-anchor="middle" x="334.48" y="-846.02" font-family="Helvetica,sans-Serif" font-size="10.00" fill="#6b6357">continue</text>
</g>
<!-- done -->
<g id="node8" class="node">
<title>done</title>
<path fill="#e1efe3" stroke="#4f8a5b" stroke-width="1.3" d="M536.21,-203.06C536.21,-203.06 479.48,-203.06 479.48,-203.06 473.48,-203.06 467.48,-197.06 467.48,-191.06 467.48,-191.06 467.48,-171.47 467.48,-171.47 467.48,-165.47 473.48,-159.47 479.48,-159.47 479.48,-159.47 536.21,-159.47 536.21,-159.47 542.21,-159.47 548.21,-165.47 548.21,-171.47 548.21,-171.47 548.21,-191.06 548.21,-191.06 548.21,-197.06 542.21,-203.06 536.21,-203.06"/>
<text xml:space="preserve" text-anchor="middle" x="507.85" y="-183.74" font-family="Helvetica,sans-Serif" font-size="12.00" fill="#2e5a38">Done →</text>
<text xml:space="preserve" text-anchor="middle" x="507.85" y="-168.74" font-family="Helvetica,sans-Serif" font-size="12.00" fill="#2e5a38">best&#45;so&#45;far</text>
</g>
<!-- controller&#45;&gt;done -->
<g id="edge9" class="edge">
<title>controller&#45;&gt;done</title>
<path fill="none" stroke="#9a9182" stroke-width="1.4" d="M216.08,-822.72C237.73,-813.24 259.36,-799.88 274.23,-781.27 434.19,-580.98 222.79,-407.37 394.73,-217.27 410.18,-200.19 433.74,-191.17 455.28,-186.42"/>
<polygon fill="#9a9182" stroke="#9a9182" stroke-width="1.4" points="455.72,-189.9 464.89,-184.6 454.42,-183.03 455.72,-189.9"/>
<text xml:space="preserve" text-anchor="middle" x="334.48" y="-746.69" font-family="Helvetica,sans-Serif" font-size="10.00" fill="#6b6357">score ≥ bar /</text>
<text xml:space="preserve" text-anchor="middle" x="334.48" y="-735.44" font-family="Helvetica,sans-Serif" font-size="10.00" fill="#6b6357">budget out</text>
</g>
<!-- escalate -->
<g id="node9" class="node">
<title>escalate</title>
<path fill="#ece3f5" stroke="#6b4e9e" stroke-width="1.3" d="M589.09,-130.94C589.09,-130.94 426.61,-130.94 426.61,-130.94 420.61,-130.94 414.61,-124.94 414.61,-118.94 414.61,-118.94 414.61,-101.6 414.61,-101.6 414.61,-95.6 420.61,-89.6 426.61,-89.6 426.61,-89.6 589.09,-89.6 589.09,-89.6 595.09,-89.6 601.09,-95.6 601.09,-101.6 601.09,-101.6 601.09,-118.94 601.09,-118.94 601.09,-124.94 595.09,-130.94 589.09,-130.94"/>
<text xml:space="preserve" text-anchor="middle" x="507.85" y="-111.62" font-family="Helvetica,sans-Serif" font-size="12.00" fill="#3f2e63">Escalate to you</text>
<text xml:space="preserve" text-anchor="middle" x="507.85" y="-98.87" font-family="Helvetica,sans-Serif" font-size="12.00" fill="#3f2e63">plateau · regression · taste fork</text>
</g>
<!-- controller&#45;&gt;escalate -->
<g id="edge10" class="edge">
<title>controller&#45;&gt;escalate</title>
<path fill="none" stroke="#9a9182" stroke-width="1.4" d="M221.25,-822.74C241.84,-813.38 261.61,-800.08 274.23,-781.27 308.9,-729.59 271.05,-277.25 299.23,-221.77 320.75,-179.41 365.46,-152.54 407.9,-135.82"/>
<polygon fill="#9a9182" stroke="#9a9182" stroke-width="1.4" points="409.09,-139.11 417.22,-132.32 406.63,-132.56 409.09,-139.11"/>
<text xml:space="preserve" text-anchor="middle" x="334.48" y="-234.77" font-family="Helvetica,sans-Serif" font-size="10.00" fill="#6b6357">plateau ·</text>
<text xml:space="preserve" text-anchor="middle" x="334.48" y="-223.52" font-family="Helvetica,sans-Serif" font-size="10.00" fill="#6b6357">regression · fork</text>
</g>
<!-- maca -->
<g id="node10" class="node">
<title>maca</title>
<polygon fill="#fffdf8" stroke="#d8d2c7" stroke-width="1.3" points="268.23,-766.44 0,-766.44 0,-728.1 274.23,-728.1 274.23,-760.44 268.23,-766.44"/>
<polyline fill="none" stroke="#d8d2c7" stroke-width="1.3" points="268.23,-766.44 268.23,-760.44"/>
<polyline fill="none" stroke="#d8d2c7" stroke-width="1.3" points="274.23,-760.44 268.23,-760.44"/>
<text xml:space="preserve" text-anchor="middle" x="137.12" y="-749.02" font-family="Helvetica,sans-Serif" font-size="10.00" fill="#6b6357">Score the WORST quality + the deltas — never the sum.</text>
<text xml:space="preserve" text-anchor="middle" x="137.12" y="-737.77" font-family="Helvetica,sans-Serif" font-size="10.00" fill="#6b6357">Reject any pass that drops a quality below best&#45;so&#45;far.</text>
</g>
<!-- controller&#45;&gt;maca -->
<!-- maker -->
<g id="node3" class="node">
<title>maker</title>
<path fill="#f6e0d6" stroke="#c2613f" stroke-width="1.3" d="M573.71,-758.44C573.71,-758.44 441.98,-758.44 441.98,-758.44 435.98,-758.44 429.98,-752.44 429.98,-746.44 429.98,-746.44 429.98,-714.1 429.98,-714.1 429.98,-708.1 435.98,-702.1 441.98,-702.1 441.98,-702.1 573.71,-702.1 573.71,-702.1 579.71,-702.1 585.71,-708.1 585.71,-714.1 585.71,-714.1 585.71,-746.44 585.71,-746.44 585.71,-752.44 579.71,-758.44 573.71,-758.44"/>
<text xml:space="preserve" text-anchor="middle" x="507.85" y="-739.12" font-family="Helvetica,sans-Serif" font-size="12.00" fill="#7a3a22">Maker</text>
<text xml:space="preserve" text-anchor="middle" x="507.85" y="-726.37" font-family="Helvetica,sans-Serif" font-size="12.00" fill="#7a3a22">apply fixes → real HTML</text>
<text xml:space="preserve" text-anchor="middle" x="507.85" y="-711.37" font-family="Helvetica,sans-Serif" font-size="12.00" fill="#7a3a22">(never sees the rubric)</text>
</g>
<!-- planner&#45;&gt;maker -->
<g id="edge1" class="edge">
<title>planner&#45;&gt;maker</title>
<path fill="none" stroke="#9a9182" stroke-width="1.4" d="M507.85,-815.54C507.85,-800.61 507.85,-785.68 507.85,-770.74"/>
<polygon fill="#9a9182" stroke="#9a9182" stroke-width="1.4" points="511.35,-770.89 507.85,-760.89 504.35,-770.89 511.35,-770.89"/>
</g>
<!-- render -->
<g id="node4" class="node">
<title>render</title>
<path fill="#ececec" stroke="#707070" stroke-width="1.3" d="M555.71,-644.44C555.71,-644.44 459.98,-644.44 459.98,-644.44 453.98,-644.44 447.98,-638.44 447.98,-632.44 447.98,-632.44 447.98,-600.1 447.98,-600.1 447.98,-594.1 453.98,-588.1 459.98,-588.1 459.98,-588.1 555.71,-588.1 555.71,-588.1 561.71,-588.1 567.71,-594.1 567.71,-600.1 567.71,-600.1 567.71,-632.44 567.71,-632.44 567.71,-638.44 561.71,-644.44 555.71,-644.44"/>
<text xml:space="preserve" text-anchor="middle" x="507.85" y="-625.12" font-family="Helvetica,sans-Serif" font-size="12.00">Render in a</text>
<text xml:space="preserve" text-anchor="middle" x="507.85" y="-612.37" font-family="Helvetica,sans-Serif" font-size="12.00">sandboxed iframe</text>
<text xml:space="preserve" text-anchor="middle" x="507.85" y="-599.62" font-family="Helvetica,sans-Serif" font-size="12.00">→ screenshot</text>
</g>
<!-- maker&#45;&gt;render -->
<g id="edge2" class="edge">
<title>maker&#45;&gt;render</title>
<path fill="none" stroke="#9a9182" stroke-width="1.4" d="M507.85,-701.54C507.85,-686.61 507.85,-671.68 507.85,-656.74"/>
<polygon fill="#9a9182" stroke="#9a9182" stroke-width="1.4" points="511.35,-656.89 507.85,-646.89 504.35,-656.89 511.35,-656.89"/>
</g>
<!-- lints -->
<g id="node5" class="node">
<title>lints</title>
<path fill="#ececec" stroke="#707070" stroke-width="1.7" d="M583.84,-530.31C583.84,-530.31 431.86,-530.31 431.86,-530.31 425.86,-530.31 419.86,-524.31 419.86,-518.31 419.86,-518.31 419.86,-488.22 419.86,-488.22 419.86,-482.22 425.86,-476.22 431.86,-476.22 431.86,-476.22 583.84,-476.22 583.84,-476.22 589.84,-476.22 595.84,-482.22 595.84,-488.22 595.84,-488.22 595.84,-518.31 595.84,-518.31 595.84,-524.31 589.84,-530.31 583.84,-530.31"/>
<text xml:space="preserve" text-anchor="middle" x="507.85" y="-510.99" font-family="Helvetica,sans-Serif" font-size="12.00">LINTS — hard gate</text>
<text xml:space="preserve" text-anchor="middle" x="507.85" y="-498.24" font-family="Helvetica,sans-Serif" font-size="12.00">renders&#45;ok · contrast · focus ·</text>
<text xml:space="preserve" text-anchor="middle" x="507.85" y="-485.49" font-family="Helvetica,sans-Serif" font-size="12.00">DOM bloat · text&#45;to&#45;chrome</text>
</g>
<!-- render&#45;&gt;lints -->
<g id="edge3" class="edge">
<title>render&#45;&gt;lints</title>
<path fill="none" stroke="#9a9182" stroke-width="1.4" d="M507.85,-587.65C507.85,-572.77 507.85,-557.89 507.85,-543.01"/>
<polygon fill="#9a9182" stroke="#9a9182" stroke-width="1.4" points="511.35,-543.19 507.85,-533.19 504.35,-543.19 511.35,-543.19"/>
</g>
<!-- lints&#45;&gt;controller -->
<g id="edge8" class="edge">
<title>lints&#45;&gt;controller</title>
<path fill="none" stroke="#c2613f" stroke-width="1.4" stroke-dasharray="5,2" d="M439.93,-475.5C422.33,-464.91 405.33,-450.99 394.73,-433.27 350.96,-360.06 431.97,-108.58 369.73,-50.27 346.86,-28.84 321.76,-28.49 299.23,-50.27 240.79,-106.74 319.16,-713.54 274.23,-781.27 263.92,-796.81 248.72,-808.59 232.18,-817.49"/>
<polygon fill="#c2613f" stroke="#c2613f" stroke-width="1.4" points="231.04,-814.15 223.63,-821.73 234.15,-820.42 231.04,-814.15"/>
<text xml:space="preserve" text-anchor="middle" x="334.48" y="-64.77" font-family="Helvetica,sans-Serif" font-size="10.00" fill="#c2613f">fail → reject</text>
<text xml:space="preserve" text-anchor="middle" x="334.48" y="-52.02" font-family="Helvetica,sans-Serif" font-size="10.00" fill="#c2613f">(skip the judge)</text>
</g>
<!-- judge -->
<g id="node6" class="node">
<title>judge</title>
<path fill="#d9ecea" stroke="#2f6f6a" stroke-width="1.7" d="M591.34,-418.31C591.34,-418.31 424.36,-418.31 424.36,-418.31 418.36,-418.31 412.36,-412.31 412.36,-406.31 412.36,-406.31 412.36,-376.22 412.36,-376.22 412.36,-370.22 418.36,-364.22 424.36,-364.22 424.36,-364.22 591.34,-364.22 591.34,-364.22 597.34,-364.22 603.34,-370.22 603.34,-376.22 603.34,-376.22 603.34,-406.31 603.34,-406.31 603.34,-412.31 597.34,-418.31 591.34,-418.31"/>
<text xml:space="preserve" text-anchor="middle" x="507.85" y="-398.99" font-family="Helvetica,sans-Serif" font-size="12.00" fill="#1e4f4a">JUDGE — frozen rubric</text>
<text xml:space="preserve" text-anchor="middle" x="507.85" y="-386.24" font-family="Helvetica,sans-Serif" font-size="12.00" fill="#1e4f4a">scores 8 qualities from the</text>
<text xml:space="preserve" text-anchor="middle" x="507.85" y="-373.49" font-family="Helvetica,sans-Serif" font-size="12.00" fill="#1e4f4a">picture only (never sees maker)</text>
</g>
<!-- lints&#45;&gt;judge -->
<g id="edge4" class="edge">
<title>lints&#45;&gt;judge</title>
<path fill="none" stroke="#4f8a5b" stroke-width="1.7" d="M507.85,-475.51C507.85,-462.17 507.85,-445.94 507.85,-431.3"/>
<polygon fill="#4f8a5b" stroke="#4f8a5b" stroke-width="1.7" points="511.35,-431.53 507.85,-421.53 504.35,-431.53 511.35,-431.53"/>
<text xml:space="preserve" text-anchor="middle" x="499.22" y="-443.39" font-family="Helvetica,sans-Serif" font-size="10.00" fill="#2e5a38">pass</text>
</g>
<!-- ledger -->
<g id="node7" class="node">
<title>ledger</title>
<path fill="#ececec" stroke="#707070" stroke-width="1.3" d="M620.96,-299.69C620.96,-303.42 570.26,-306.45 507.85,-306.45 445.43,-306.45 394.73,-303.42 394.73,-299.69 394.73,-299.69 394.73,-238.84 394.73,-238.84 394.73,-235.11 445.43,-232.08 507.85,-232.08 570.26,-232.08 620.96,-235.11 620.96,-238.84 620.96,-238.84 620.96,-299.69 620.96,-299.69"/>
<path fill="none" stroke="#707070" stroke-width="1.3" d="M620.96,-299.69C620.96,-295.96 570.26,-292.93 507.85,-292.93 445.43,-292.93 394.73,-295.96 394.73,-299.69"/>
<text xml:space="preserve" text-anchor="middle" x="507.85" y="-276.99" font-family="Helvetica,sans-Serif" font-size="12.00">LEDGER (append&#45;only, cross&#45;run)</text>
<text xml:space="preserve" text-anchor="middle" x="507.85" y="-264.24" font-family="Helvetica,sans-Serif" font-size="12.00">co&#45;authored: lints append result ·</text>
<text xml:space="preserve" text-anchor="middle" x="507.85" y="-251.49" font-family="Helvetica,sans-Serif" font-size="12.00">judge appends score · controller seals</text>
</g>
<!-- judge&#45;&gt;ledger -->
<g id="edge5" class="edge">
<title>judge&#45;&gt;ledger</title>
<path fill="none" stroke="#9a9182" stroke-width="1.4" d="M507.85,-363.59C507.85,-348.68 507.85,-333.78 507.85,-318.87"/>
<polygon fill="#9a9182" stroke="#9a9182" stroke-width="1.4" points="511.35,-319.03 507.85,-309.03 504.35,-319.03 511.35,-319.03"/>
</g>
<!-- ledger&#45;&gt;controller -->
<g id="edge7" class="edge">
<title>ledger&#45;&gt;controller</title>
<path fill="none" stroke="#9a9182" stroke-width="1.4" d="M410.59,-233.69C404.62,-228.87 399.22,-223.42 394.73,-217.27 368.18,-180.85 403.5,-45.85 369.73,-16.02 346.25,4.73 321.74,5.77 299.23,-16.02 238.1,-75.18 321.21,-710.34 274.23,-781.27 263.93,-796.82 248.74,-808.6 232.2,-817.5"/>
<polygon fill="#9a9182" stroke="#9a9182" stroke-width="1.4" points="231.06,-814.16 223.65,-821.74 234.17,-820.43 231.06,-814.16"/>
<text xml:space="preserve" text-anchor="middle" x="334.48" y="-17.77" font-family="Helvetica,sans-Serif" font-size="10.00" fill="#6b6357">scores · Δ</text>
</g>
</g>
</svg>
