<?xml version="1.0" encoding="UTF-8" standalone="no"?>
<!DOCTYPE svg PUBLIC "-//W3C//DTD SVG 1.1//EN"
 "http://www.w3.org/Graphics/SVG/1.1/DTD/svg11.dtd">
<!-- Generated by graphviz version 14.1.3 (20260303.0454)
 -->
<!-- Title: design_loop Pages: 1 -->
<svg width="2042pt" height="423pt"
 viewBox="0.00 0.00 2042.00 423.00" xmlns="http://www.w3.org/2000/svg" xmlns:xlink="http://www.w3.org/1999/xlink">
<g id="graph0" class="graph" transform="scale(1 1) rotate(0) translate(32.4 390.44)">
<title>design_loop</title>
<polygon fill="white" stroke="none" points="-32.4,32.4 -32.4,-390.44 2009.49,-390.44 2009.49,32.4 -32.4,32.4"/>
<text xml:space="preserve" text-anchor="start" x="840.79" y="-334.14" font-family="Helvetica,sans-Serif" font-weight="bold" font-size="22.00" fill="#1a1a1a">How the design judge works</text>
<text xml:space="preserve" text-anchor="start" x="794.67" y="-320.69" font-family="Helvetica,sans-Serif" font-size="13.00" fill="#6b6357">Each pass should raise the score — repeat until it&#39;s good enough</text>
<g id="clust2" class="cluster">
<title>cluster_legend</title>
<path fill="#fbf9f4" stroke="#e3dccf" d="M20,-251.04C20,-251.04 569.16,-251.04 569.16,-251.04 575.16,-251.04 581.16,-257.04 581.16,-263.04 581.16,-263.04 581.16,-295.04 581.16,-295.04 581.16,-301.04 575.16,-307.04 569.16,-307.04 569.16,-307.04 20,-307.04 20,-307.04 14,-307.04 8,-301.04 8,-295.04 8,-295.04 8,-263.04 8,-263.04 8,-257.04 14,-251.04 20,-251.04"/>
</g>
<!-- share -->
<g id="node1" class="node">
<title>share</title>
<path fill="#ece7dd" stroke="#d8d2c7" stroke-width="1.2" d="M154.3,-224.81C154.3,-224.81 31.87,-224.81 31.87,-224.81 25.87,-224.81 19.87,-218.81 19.87,-212.81 19.87,-212.81 19.87,-173.27 19.87,-173.27 19.87,-167.27 25.87,-161.27 31.87,-161.27 31.87,-161.27 154.3,-161.27 154.3,-161.27 160.3,-161.27 166.3,-167.27 166.3,-173.27 166.3,-173.27 166.3,-212.81 166.3,-212.81 166.3,-218.81 160.3,-224.81 154.3,-224.81"/>
<text xml:space="preserve" text-anchor="middle" x="93.09" y="-200.94" font-family="Helvetica,sans-Serif" font-size="13.00" fill="#1a1a1a">You share a design</text>
<text xml:space="preserve" text-anchor="middle" x="93.09" y="-187.44" font-family="Helvetica,sans-Serif" font-size="13.00" fill="#1a1a1a">(web page, link,</text>
<text xml:space="preserve" text-anchor="middle" x="93.09" y="-173.94" font-family="Helvetica,sans-Serif" font-size="13.00" fill="#1a1a1a">or screenshot)</text>
</g>
<!-- pic1 -->
<g id="node2" class="node">
<title>pic1</title>
<path fill="#f5f2ec" stroke="#d8d2c7" stroke-width="1.2" d="M363.11,-211.31C363.11,-211.31 239.18,-211.31 239.18,-211.31 233.18,-211.31 227.18,-205.31 227.18,-199.31 227.18,-199.31 227.18,-186.77 227.18,-186.77 227.18,-180.77 233.18,-174.77 239.18,-174.77 239.18,-174.77 363.11,-174.77 363.11,-174.77 369.11,-174.77 375.11,-180.77 375.11,-186.77 375.11,-186.77 375.11,-199.31 375.11,-199.31 375.11,-205.31 369.11,-211.31 363.11,-211.31"/>
<text xml:space="preserve" text-anchor="middle" x="301.14" y="-187.44" font-family="Helvetica,sans-Serif" font-size="13.00" fill="#1a1a1a">Takes a picture of it</text>
</g>
<!-- share&#45;&gt;pic1 -->
<g id="edge1" class="edge">
<title>share&#45;&gt;pic1</title>
<path fill="none" stroke="#9a9182" stroke-width="1.5" d="M166.74,-193.04C182.71,-193.04 199.74,-193.04 216.12,-193.04"/>
<polygon fill="#9a9182" stroke="#9a9182" stroke-width="1.5" points="215.99,-196.01 224.49,-193.04 215.99,-190.06 215.99,-196.01"/>
</g>
<!-- score -->
<g id="node4" class="node">
<title>score</title>
<path fill="#f1ddd2" stroke="#c2613f" stroke-width="1.2" d="M603.04,-218.06C603.04,-218.06 446.11,-218.06 446.11,-218.06 440.11,-218.06 434.11,-212.06 434.11,-206.06 434.11,-206.06 434.11,-180.02 434.11,-180.02 434.11,-174.02 440.11,-168.02 446.11,-168.02 446.11,-168.02 603.04,-168.02 603.04,-168.02 609.04,-168.02 615.04,-174.02 615.04,-180.02 615.04,-180.02 615.04,-206.06 615.04,-206.06 615.04,-212.06 609.04,-218.06 603.04,-218.06"/>
<text xml:space="preserve" text-anchor="middle" x="524.57" y="-194.19" font-family="Helvetica,sans-Serif" font-size="13.00" fill="#1a1a1a">Decides a score for each</text>
<text xml:space="preserve" text-anchor="middle" x="524.57" y="-180.69" font-family="Helvetica,sans-Serif" font-size="13.00" fill="#1a1a1a">of 8 qualities (0u20134)</text>
</g>
<!-- pic1&#45;&gt;score -->
<g id="edge2" class="edge">
<title>pic1&#45;&gt;score</title>
<path fill="none" stroke="#9a9182" stroke-width="1.5" d="M375.57,-193.04C390.85,-193.04 407.21,-193.04 423.27,-193.04"/>
<polygon fill="#9a9182" stroke="#9a9182" stroke-width="1.5" points="423,-196.01 431.5,-193.04 423,-190.06 423,-196.01"/>
</g>
<!-- pic2 -->
<g id="node3" class="node">
<title>pic2</title>
<path fill="#f5f2ec" stroke="#d8d2c7" stroke-width="1.2" d="M1269.58,-218.06C1269.58,-218.06 1133.65,-218.06 1133.65,-218.06 1127.65,-218.06 1121.65,-212.06 1121.65,-206.06 1121.65,-206.06 1121.65,-180.02 1121.65,-180.02 1121.65,-174.02 1127.65,-168.02 1133.65,-168.02 1133.65,-168.02 1269.58,-168.02 1269.58,-168.02 1275.58,-168.02 1281.58,-174.02 1281.58,-180.02 1281.58,-180.02 1281.58,-206.06 1281.58,-206.06 1281.58,-212.06 1275.58,-218.06 1269.58,-218.06"/>
<text xml:space="preserve" text-anchor="middle" x="1201.61" y="-194.19" font-family="Helvetica,sans-Serif" font-size="13.00" fill="#1a1a1a">Takes a picture of the</text>
<text xml:space="preserve" text-anchor="middle" x="1201.61" y="-180.69" font-family="Helvetica,sans-Serif" font-size="13.00" fill="#1a1a1a">improved version</text>
</g>
<!-- report -->
<g id="node7" class="node">
<title>report</title>
<path fill="#2f6f6a" stroke="#24544f" stroke-width="1.2" d="M1634.76,-218.06C1634.76,-218.06 1366.08,-218.06 1366.08,-218.06 1360.08,-218.06 1354.08,-212.06 1354.08,-206.06 1354.08,-206.06 1354.08,-180.02 1354.08,-180.02 1354.08,-174.02 1360.08,-168.02 1366.08,-168.02 1366.08,-168.02 1634.76,-168.02 1634.76,-168.02 1640.76,-168.02 1646.76,-174.02 1646.76,-180.02 1646.76,-180.02 1646.76,-206.06 1646.76,-206.06 1646.76,-212.06 1640.76,-218.06 1634.76,-218.06"/>
<text xml:space="preserve" text-anchor="middle" x="1500.42" y="-194.19" font-family="Helvetica,sans-Serif" font-size="13.00" fill="white">Hands you a report:</text>
<text xml:space="preserve" text-anchor="middle" x="1500.42" y="-180.69" font-family="Helvetica,sans-Serif" font-size="13.00" fill="white">score u00b7 fixes u00b7 before u2192 after</text>
</g>
<!-- pic2&#45;&gt;report -->
<g id="edge6" class="edge">
<title>pic2&#45;&gt;report</title>
<path fill="none" stroke="#9a9182" stroke-width="1.5" d="M1282.15,-193.04C1301.1,-193.04 1321.98,-193.04 1343.07,-193.04"/>
<polygon fill="#9a9182" stroke="#9a9182" stroke-width="1.5" points="1342.99,-196.01 1351.49,-193.04 1342.99,-190.06 1342.99,-196.01"/>
</g>
<!-- pick -->
<g id="node5" class="node">
<title>pick</title>
<path fill="#f1ddd2" stroke="#c2613f" stroke-width="1.2" d="M839.22,-218.06C839.22,-218.06 686.04,-218.06 686.04,-218.06 680.04,-218.06 674.04,-212.06 674.04,-206.06 674.04,-206.06 674.04,-180.02 674.04,-180.02 674.04,-174.02 680.04,-168.02 686.04,-168.02 686.04,-168.02 839.22,-168.02 839.22,-168.02 845.22,-168.02 851.22,-174.02 851.22,-180.02 851.22,-180.02 851.22,-206.06 851.22,-206.06 851.22,-212.06 845.22,-218.06 839.22,-218.06"/>
<text xml:space="preserve" text-anchor="middle" x="762.63" y="-194.19" font-family="Helvetica,sans-Serif" font-size="13.00" fill="#1a1a1a">Decides which problems</text>
<text xml:space="preserve" text-anchor="middle" x="762.63" y="-180.69" font-family="Helvetica,sans-Serif" font-size="13.00" fill="#1a1a1a">matter most to fix</text>
</g>
<!-- score&#45;&gt;pick -->
<g id="edge3" class="edge">
<title>score&#45;&gt;pick</title>
<path fill="none" stroke="#9a9182" stroke-width="1.5" d="M615.49,-193.04C630.95,-193.04 647.09,-193.04 662.76,-193.04"/>
<polygon fill="#9a9182" stroke="#9a9182" stroke-width="1.5" points="662.75,-196.01 671.25,-193.04 662.75,-190.06 662.75,-196.01"/>
</g>
<!-- rebuild -->
<g id="node6" class="node">
<title>rebuild</title>
<path fill="#f1ddd2" stroke="#c2613f" stroke-width="1.2" d="M1050.65,-218.06C1050.65,-218.06 922.22,-218.06 922.22,-218.06 916.22,-218.06 910.22,-212.06 910.22,-206.06 910.22,-206.06 910.22,-180.02 910.22,-180.02 910.22,-174.02 916.22,-168.02 922.22,-168.02 922.22,-168.02 1050.65,-168.02 1050.65,-168.02 1056.65,-168.02 1062.65,-174.02 1062.65,-180.02 1062.65,-180.02 1062.65,-206.06 1062.65,-206.06 1062.65,-212.06 1056.65,-218.06 1050.65,-218.06"/>
<text xml:space="preserve" text-anchor="middle" x="986.43" y="-194.19" font-family="Helvetica,sans-Serif" font-size="13.00" fill="#1a1a1a">Redesigns it into</text>
<text xml:space="preserve" text-anchor="middle" x="986.43" y="-180.69" font-family="Helvetica,sans-Serif" font-size="13.00" fill="#1a1a1a">an improved version</text>
</g>
<!-- pick&#45;&gt;rebuild -->
<g id="edge4" class="edge">
<title>pick&#45;&gt;rebuild</title>
<path fill="none" stroke="#9a9182" stroke-width="1.5" d="M851.61,-193.04C867.24,-193.04 883.5,-193.04 899.08,-193.04"/>
<polygon fill="#9a9182" stroke="#9a9182" stroke-width="1.5" points="898.97,-196.01 907.47,-193.04 898.97,-190.06 898.97,-196.01"/>
</g>
<!-- rebuild&#45;&gt;pic2 -->
<g id="edge5" class="edge">
<title>rebuild&#45;&gt;pic2</title>
<path fill="none" stroke="#9a9182" stroke-width="1.5" d="M1063.19,-193.04C1078.61,-193.04 1094.96,-193.04 1110.81,-193.04"/>
<polygon fill="#9a9182" stroke="#9a9182" stroke-width="1.5" points="1110.36,-196.01 1118.86,-193.04 1110.36,-190.06 1110.36,-196.01"/>
</g>
<!-- check -->
<g id="node8" class="node">
<title>check</title>
<path fill="#fbf6ee" stroke="#c2613f" stroke-width="1.2" d="M1768.23,-217.55C1768.23,-217.55 1729.99,-198.41 1729.99,-198.41 1724.63,-195.72 1724.63,-190.35 1729.99,-187.67 1729.99,-187.67 1768.23,-168.53 1768.23,-168.53 1773.59,-165.84 1784.33,-165.84 1789.69,-168.53 1789.69,-168.53 1827.93,-187.67 1827.93,-187.67 1833.29,-190.35 1833.29,-195.72 1827.93,-198.41 1827.93,-198.41 1789.69,-217.55 1789.69,-217.55 1784.33,-220.23 1773.59,-220.23 1768.23,-217.55"/>
<text xml:space="preserve" text-anchor="middle" x="1778.96" y="-194.19" font-family="Helvetica,sans-Serif" font-size="13.00" fill="#1a1a1a">Good</text>
<text xml:space="preserve" text-anchor="middle" x="1778.96" y="-180.69" font-family="Helvetica,sans-Serif" font-size="13.00" fill="#1a1a1a">enough?</text>
</g>
<!-- report&#45;&gt;check -->
<g id="edge7" class="edge">
<title>report&#45;&gt;check</title>
<path fill="none" stroke="#9a9182" stroke-width="1.5" d="M1646.98,-193.04C1667.97,-193.04 1688.74,-193.04 1707.34,-193.04"/>
<polygon fill="#9a9182" stroke="#9a9182" stroke-width="1.5" points="1707.26,-196.01 1715.76,-193.04 1707.26,-190.06 1707.26,-196.01"/>
</g>
<!-- note -->
<g id="node10" class="node">
<title>note</title>
<polygon fill="#fffdf8" stroke="#d8d2c7" stroke-width="1.2" points="1654.26,-96.56 1340.58,-96.56 1340.58,-49.52 1660.26,-49.52 1660.26,-90.56 1654.26,-96.56"/>
<polyline fill="none" stroke="#d8d2c7" stroke-width="1.2" points="1654.26,-96.56 1654.26,-90.56"/>
<polyline fill="none" stroke="#d8d2c7" stroke-width="1.2" points="1660.26,-90.56 1654.26,-90.56"/>
<text xml:space="preserve" text-anchor="middle" x="1500.42" y="-74.59" font-family="Helvetica,sans-Serif" font-size="11.00" fill="#6b6357">Today: you decide whether to run another pass.</text>
<text xml:space="preserve" text-anchor="middle" x="1500.42" y="-62.59" font-family="Helvetica,sans-Serif" font-size="11.00" fill="#6b6357">Next shape: it repeats on its own until the score clears a bar.</text>
</g>
<!-- report&#45;&gt;note -->
<!-- check&#45;&gt;pic1 -->
<g id="edge9" class="edge">
<title>check&#45;&gt;pic1</title>
<path fill="none" stroke="#c2613f" stroke-width="1.5" stroke-dasharray="5,2" d="M1768.53,-168.08C1752.73,-130.29 1716.94,-59.92 1660.26,-31.04 1533.67,33.46 1482.36,-21.77 1340.58,-31.04 935.11,-57.54 830.4,-60.27 434.11,-150.04 410.37,-155.42 384.81,-163.25 362.57,-170.76"/>
<polygon fill="#c2613f" stroke="#c2613f" stroke-width="1.5" points="361.83,-167.87 354.75,-173.44 363.76,-173.49 361.83,-167.87"/>
<text xml:space="preserve" text-anchor="middle" x="986.43" y="-77.28" font-family="Helvetica,sans-Serif" font-size="11.00" fill="#c2613f">no u2014 judge the</text>
<text xml:space="preserve" text-anchor="middle" x="986.43" y="-65.28" font-family="Helvetica,sans-Serif" font-size="11.00" fill="#c2613f">improved version</text>
</g>
<!-- done -->
<g id="node9" class="node">
<title>done</title>
<path fill="#e4ece0" stroke="#7fa487" stroke-width="1.2" d="M1965.09,-211.31C1965.09,-211.31 1925.16,-211.31 1925.16,-211.31 1919.16,-211.31 1913.16,-205.31 1913.16,-199.31 1913.16,-199.31 1913.16,-186.77 1913.16,-186.77 1913.16,-180.77 1919.16,-174.77 1925.16,-174.77 1925.16,-174.77 1965.09,-174.77 1965.09,-174.77 1971.09,-174.77 1977.09,-180.77 1977.09,-186.77 1977.09,-186.77 1977.09,-199.31 1977.09,-199.31 1977.09,-205.31 1971.09,-211.31 1965.09,-211.31"/>
<text xml:space="preserve" text-anchor="middle" x="1945.12" y="-187.44" font-family="Helvetica,sans-Serif" font-size="13.00" fill="#1a1a1a">Done</text>
</g>
<!-- check&#45;&gt;done -->
<g id="edge8" class="edge">
<title>check&#45;&gt;done</title>
<path fill="none" stroke="#9a9182" stroke-width="1.5" d="M1839.69,-193.04C1860.38,-193.04 1883.13,-193.04 1902.09,-193.04"/>
<polygon fill="#9a9182" stroke="#9a9182" stroke-width="1.5" points="1902.01,-196.01 1910.51,-193.04 1902.01,-190.06 1902.01,-196.01"/>
<text xml:space="preserve" text-anchor="middle" x="1875.91" y="-194.59" font-family="Helvetica,sans-Serif" font-size="11.00" fill="#6b6357">yes</text>
</g>
<!-- lj -->
<g id="node11" class="node">
<title>lj</title>
<path fill="#f1ddd2" stroke="#c2613f" stroke-width="1.2" d="M156.18,-297.04C156.18,-297.04 30,-297.04 30,-297.04 24,-297.04 18,-291.04 18,-285.04 18,-285.04 18,-273.04 18,-273.04 18,-267.04 24,-261.04 30,-261.04 30,-261.04 156.18,-261.04 156.18,-261.04 162.18,-261.04 168.18,-267.04 168.18,-273.04 168.18,-273.04 168.18,-285.04 168.18,-285.04 168.18,-291.04 162.18,-297.04 156.18,-297.04"/>
<text xml:space="preserve" text-anchor="middle" x="93.09" y="-274.59" font-family="Helvetica,sans-Serif" font-size="11.00" fill="#1a1a1a">a judgment the AI makes</text>
</g>
<!-- la -->
<g id="node12" class="node">
<title>la</title>
<path fill="#f5f2ec" stroke="#d8d2c7" stroke-width="1.2" d="M347.36,-297.04C347.36,-297.04 254.93,-297.04 254.93,-297.04 248.93,-297.04 242.93,-291.04 242.93,-285.04 242.93,-285.04 242.93,-273.04 242.93,-273.04 242.93,-267.04 248.93,-261.04 254.93,-261.04 254.93,-261.04 347.36,-261.04 347.36,-261.04 353.36,-261.04 359.36,-267.04 359.36,-273.04 359.36,-273.04 359.36,-285.04 359.36,-285.04 359.36,-291.04 353.36,-297.04 347.36,-297.04"/>
<text xml:space="preserve" text-anchor="middle" x="301.14" y="-274.59" font-family="Helvetica,sans-Serif" font-size="11.00" fill="#1a1a1a">an automatic step</text>
</g>
<!-- lj&#45;&gt;la -->
<!-- lr -->
<g id="node13" class="node">
<title>lr</title>
<path fill="#2f6f6a" stroke="#24544f" stroke-width="1.2" d="M559.16,-297.04C559.16,-297.04 489.98,-297.04 489.98,-297.04 483.98,-297.04 477.98,-291.04 477.98,-285.04 477.98,-285.04 477.98,-273.04 477.98,-273.04 477.98,-267.04 483.98,-261.04 489.98,-261.04 489.98,-261.04 559.16,-261.04 559.16,-261.04 565.16,-261.04 571.16,-267.04 571.16,-273.04 571.16,-273.04 571.16,-285.04 571.16,-285.04 571.16,-291.04 565.16,-297.04 559.16,-297.04"/>
<text xml:space="preserve" text-anchor="middle" x="524.57" y="-274.59" font-family="Helvetica,sans-Serif" font-size="11.00" fill="white">what you get</text>
</g>
<!-- la&#45;&gt;lr -->
</g>
</svg>
