<?xml version="1.0" encoding="UTF-8" standalone="no"?>
<!DOCTYPE svg PUBLIC "-//W3C//DTD SVG 1.1//EN"
 "http://www.w3.org/Graphics/SVG/1.1/DTD/svg11.dtd">
<!-- Generated by graphviz version 14.1.3 (20260303.0454)
 -->
<!-- Title: design_loop Pages: 1 -->
<svg width="1075pt" height="167pt"
 viewBox="0.00 0.00 1075.00 167.00" xmlns="http://www.w3.org/2000/svg" xmlns:xlink="http://www.w3.org/1999/xlink">
<g id="graph0" class="graph" transform="scale(1 1) rotate(0) translate(28.8 137.78)">
<title>design_loop</title>
<polygon fill="white" stroke="none" points="-28.8,28.8 -28.8,-137.78 1046.1,-137.78 1046.1,28.8 -28.8,28.8"/>
<text xml:space="preserve" text-anchor="middle" x="508.65" y="-84.08" font-family="Helvetica,sans-Serif" font-size="22.00" fill="#1a1a1a">How the design judge works</text>
<!-- start -->
<g id="node1" class="node">
<title>start</title>
<path fill="#ece7dd" stroke="#d8d2c7" stroke-width="1.2" d="M139.56,-71.73C139.56,-71.73 12,-71.73 12,-71.73 6,-71.73 0,-65.73 0,-59.73 0,-59.73 0,-18.75 0,-18.75 0,-12.75 6,-6.75 12,-6.75 12,-6.75 139.56,-6.75 139.56,-6.75 145.56,-6.75 151.56,-12.75 151.56,-18.75 151.56,-18.75 151.56,-59.73 151.56,-59.73 151.56,-65.73 145.56,-71.73 139.56,-71.73"/>
<text xml:space="preserve" text-anchor="middle" x="75.78" y="-47.14" font-family="Helvetica,sans-Serif" font-size="13.00" fill="#1a1a1a">You share a design</text>
<text xml:space="preserve" text-anchor="middle" x="75.78" y="-33.64" font-family="Helvetica,sans-Serif" font-size="13.00" fill="#1a1a1a">(a web page, a link,</text>
<text xml:space="preserve" text-anchor="middle" x="75.78" y="-20.14" font-family="Helvetica,sans-Serif" font-size="13.00" fill="#1a1a1a">or a screenshot)</text>
</g>
<!-- shot -->
<g id="node2" class="node">
<title>shot</title>
<path fill="#f5f2ec" stroke="#d8d2c7" stroke-width="1.2" d="M327.12,-64.98C327.12,-64.98 217.56,-64.98 217.56,-64.98 211.56,-64.98 205.56,-58.98 205.56,-52.98 205.56,-52.98 205.56,-25.5 205.56,-25.5 205.56,-19.5 211.56,-13.5 217.56,-13.5 217.56,-13.5 327.12,-13.5 327.12,-13.5 333.12,-13.5 339.12,-19.5 339.12,-25.5 339.12,-25.5 339.12,-52.98 339.12,-52.98 339.12,-58.98 333.12,-64.98 327.12,-64.98"/>
<text xml:space="preserve" text-anchor="middle" x="272.34" y="-40.39" font-family="Helvetica,sans-Serif" font-size="13.00" fill="#1a1a1a">It takes a picture</text>
<text xml:space="preserve" text-anchor="middle" x="272.34" y="-26.89" font-family="Helvetica,sans-Serif" font-size="13.00" fill="#1a1a1a">of the design</text>
</g>
<!-- start&#45;&gt;shot -->
<g id="edge1" class="edge">
<title>start&#45;&gt;shot</title>
<path fill="none" stroke="#9a9182" stroke-width="1.5" d="M152,-39.24C165.98,-39.24 180.59,-39.24 194.61,-39.24"/>
<polygon fill="#9a9182" stroke="#9a9182" stroke-width="1.5" points="194.42,-42.22 202.92,-39.24 194.42,-36.27 194.42,-42.22"/>
</g>
<!-- score -->
<g id="node3" class="node">
<title>score</title>
<path fill="#f5f2ec" stroke="#d8d2c7" stroke-width="1.2" d="M537.18,-78.48C537.18,-78.48 405.12,-78.48 405.12,-78.48 399.12,-78.48 393.12,-72.48 393.12,-66.48 393.12,-66.48 393.12,-12 393.12,-12 393.12,-6 399.12,0 405.12,0 405.12,0 537.18,0 537.18,0 543.18,0 549.18,-6 549.18,-12 549.18,-12 549.18,-66.48 549.18,-66.48 549.18,-72.48 543.18,-78.48 537.18,-78.48"/>
<text xml:space="preserve" text-anchor="middle" x="471.15" y="-53.89" font-family="Helvetica,sans-Serif" font-size="13.00" fill="#1a1a1a">It scores the design</text>
<text xml:space="preserve" text-anchor="middle" x="471.15" y="-40.39" font-family="Helvetica,sans-Serif" font-size="13.00" fill="#1a1a1a">on 8 simple qualities</text>
<text xml:space="preserve" text-anchor="middle" x="471.15" y="-26.89" font-family="Helvetica,sans-Serif" font-size="13.00" fill="#1a1a1a">(clarity, elegance,</text>
<text xml:space="preserve" text-anchor="middle" x="471.15" y="-13.39" font-family="Helvetica,sans-Serif" font-size="13.00" fill="#1a1a1a">restraint, and more)</text>
</g>
<!-- shot&#45;&gt;score -->
<g id="edge2" class="edge">
<title>shot&#45;&gt;score</title>
<path fill="none" stroke="#9a9182" stroke-width="1.5" d="M339.7,-39.24C353.44,-39.24 368.11,-39.24 382.48,-39.24"/>
<polygon fill="#9a9182" stroke="#9a9182" stroke-width="1.5" points="382.09,-42.22 390.59,-39.24 382.09,-36.27 382.09,-42.22"/>
</g>
<!-- build -->
<g id="node4" class="node">
<title>build</title>
<path fill="#f5f2ec" stroke="#d8d2c7" stroke-width="1.2" d="M768.99,-64.98C768.99,-64.98 615.18,-64.98 615.18,-64.98 609.18,-64.98 603.18,-58.98 603.18,-52.98 603.18,-52.98 603.18,-25.5 603.18,-25.5 603.18,-19.5 609.18,-13.5 615.18,-13.5 615.18,-13.5 768.99,-13.5 768.99,-13.5 774.99,-13.5 780.99,-19.5 780.99,-25.5 780.99,-25.5 780.99,-52.98 780.99,-52.98 780.99,-58.98 774.99,-64.98 768.99,-64.98"/>
<text xml:space="preserve" text-anchor="middle" x="692.08" y="-40.39" font-family="Helvetica,sans-Serif" font-size="13.00" fill="#1a1a1a">It builds a better version</text>
<text xml:space="preserve" text-anchor="middle" x="692.08" y="-26.89" font-family="Helvetica,sans-Serif" font-size="13.00" fill="#1a1a1a">and takes a picture of it</text>
</g>
<!-- score&#45;&gt;build -->
<g id="edge3" class="edge">
<title>score&#45;&gt;build</title>
<path fill="none" stroke="#9a9182" stroke-width="1.5" d="M549.65,-39.24C563.5,-39.24 578.11,-39.24 592.47,-39.24"/>
<polygon fill="#9a9182" stroke="#9a9182" stroke-width="1.5" points="592.09,-42.22 600.59,-39.24 592.09,-36.27 592.09,-42.22"/>
</g>
<!-- report -->
<g id="node5" class="node">
<title>report</title>
<path fill="#2f6f6a" stroke="#24544f" stroke-width="1.2" d="M1005.3,-71.73C1005.3,-71.73 846.99,-71.73 846.99,-71.73 840.99,-71.73 834.99,-65.73 834.99,-59.73 834.99,-59.73 834.99,-18.75 834.99,-18.75 834.99,-12.75 840.99,-6.75 846.99,-6.75 846.99,-6.75 1005.3,-6.75 1005.3,-6.75 1011.3,-6.75 1017.3,-12.75 1017.3,-18.75 1017.3,-18.75 1017.3,-59.73 1017.3,-59.73 1017.3,-65.73 1011.3,-71.73 1005.3,-71.73"/>
<text xml:space="preserve" text-anchor="middle" x="926.14" y="-47.14" font-family="Helvetica,sans-Serif" font-size="13.00" fill="white">You get a clean report:</text>
<text xml:space="preserve" text-anchor="middle" x="926.14" y="-33.64" font-family="Helvetica,sans-Serif" font-size="13.00" fill="white">the score, what to fix,</text>
<text xml:space="preserve" text-anchor="middle" x="926.14" y="-20.14" font-family="Helvetica,sans-Serif" font-size="13.00" fill="white">and a before u2192 after</text>
</g>
<!-- build&#45;&gt;report -->
<g id="edge4" class="edge">
<title>build&#45;&gt;report</title>
<path fill="none" stroke="#9a9182" stroke-width="1.5" d="M781.48,-39.24C795.36,-39.24 809.8,-39.24 823.94,-39.24"/>
<polygon fill="#9a9182" stroke="#9a9182" stroke-width="1.5" points="823.92,-42.22 832.42,-39.24 823.92,-36.27 823.92,-42.22"/>
</g>
</g>
</svg>
