<?xml version="1.0" encoding="UTF-8" standalone="no"?>
<!DOCTYPE svg PUBLIC "-//W3C//DTD SVG 1.1//EN"
 "http://www.w3.org/Graphics/SVG/1.1/DTD/svg11.dtd">
<!-- Generated by graphviz version 14.1.3 (20260303.0454)
 -->
<!-- Title: harness Pages: 1 -->
<svg width="2383pt" height="659pt"
 viewBox="0.00 0.00 2383.00 659.00" xmlns="http://www.w3.org/2000/svg" xmlns:xlink="http://www.w3.org/1999/xlink">
<g id="graph0" class="graph" transform="scale(1 1) rotate(0) translate(36 622.55)">
<title>harness</title>
<polygon fill="white" stroke="none" points="-36,36 -36,-622.55 2347.34,-622.55 2347.34,36 -36,36"/>
<text xml:space="preserve" text-anchor="start" x="871.04" y="-562.65" font-family="Helvetica,sans-Serif" font-weight="bold" font-size="22.00" fill="#1a1a1a">The design harness — a governed judge ↔ maker loop</text>
<text xml:space="preserve" text-anchor="start" x="949.79" y="-550.15" font-family="Helvetica,sans-Serif" font-size="12.00" fill="#6b6357">You set the bar once; the loop grinds toward it and only calls you on a real fork</text>
<g id="clust2" class="cluster">
<title>cluster_key</title>
<path fill="#fbf9f4" stroke="#e3dccf" d="M2157.34,-8C2157.34,-8 2291.34,-8 2291.34,-8 2297.34,-8 2303.34,-14 2303.34,-20 2303.34,-20 2303.34,-524.55 2303.34,-524.55 2303.34,-530.55 2297.34,-536.55 2291.34,-536.55 2291.34,-536.55 2157.34,-536.55 2157.34,-536.55 2151.34,-536.55 2145.34,-530.55 2145.34,-524.55 2145.34,-524.55 2145.34,-20 2145.34,-20 2145.34,-14 2151.34,-8 2157.34,-8"/>
<text xml:space="preserve" text-anchor="middle" x="2224.34" y="-523.05" font-family="Helvetica,sans-Serif" font-size="10.00" fill="#6b6357">colour key</text>
</g>
<!-- human -->
<g id="node1" class="node">
<title>human</title>
<path fill="#ece3f5" stroke="#6b4e9e" stroke-width="1.3" d="M1719.92,-512.69C1719.92,-512.69 1580.75,-512.69 1580.75,-512.69 1574.75,-512.69 1568.75,-506.69 1568.75,-500.69 1568.75,-500.69 1568.75,-481.91 1568.75,-481.91 1568.75,-475.91 1574.75,-469.91 1580.75,-469.91 1580.75,-469.91 1719.92,-469.91 1719.92,-469.91 1725.92,-469.91 1731.92,-475.91 1731.92,-481.91 1731.92,-481.91 1731.92,-500.69 1731.92,-500.69 1731.92,-506.69 1725.92,-512.69 1719.92,-512.69"/>
<text xml:space="preserve" text-anchor="middle" x="1650.34" y="-492.65" font-family="Helvetica,sans-Serif" font-size="12.00" fill="#3f2e63">You — set the bar, budget</text>
<text xml:space="preserve" text-anchor="middle" x="1650.34" y="-479.9" font-family="Helvetica,sans-Serif" font-size="12.00" fill="#3f2e63">&amp; no&#45;regress floors (once)</text>
</g>
<!-- controller -->
<g id="node2" class="node">
<title>controller</title>
<path fill="#ececec" stroke="#707070" stroke-width="1.9" d="M1444.8,-410.66C1444.8,-410.66 1205.88,-410.66 1205.88,-410.66 1199.88,-410.66 1193.88,-404.66 1193.88,-398.66 1193.88,-398.66 1193.88,-379.88 1193.88,-379.88 1193.88,-373.88 1199.88,-367.88 1205.88,-367.88 1205.88,-367.88 1444.8,-367.88 1444.8,-367.88 1450.8,-367.88 1456.8,-373.88 1456.8,-379.88 1456.8,-379.88 1456.8,-398.66 1456.8,-398.66 1456.8,-404.66 1450.8,-410.66 1444.8,-410.66"/>
<text xml:space="preserve" text-anchor="middle" x="1325.34" y="-390.62" font-family="Helvetica,sans-Serif" font-size="12.00" fill="#2a2a2a">CONTROLLER &#160;(deterministic — no LLM)</text>
<text xml:space="preserve" text-anchor="middle" x="1325.34" y="-377.87" font-family="Helvetica,sans-Serif" font-size="12.00" fill="#2a2a2a">budget · best&#45;so&#45;far · rollback · stopping rules</text>
</g>
<!-- human&#45;&gt;controller -->
<g id="edge1" class="edge">
<title>human&#45;&gt;controller</title>
<path fill="none" stroke="#6b4e9e" stroke-width="1.4" stroke-dasharray="5,2" d="M1582.2,-469.33C1530.77,-453.5 1460.03,-431.73 1405.8,-415.04"/>
<polygon fill="#6b4e9e" stroke="#6b4e9e" stroke-width="1.4" points="1407.11,-411.78 1396.52,-412.18 1405.05,-418.47 1407.11,-411.78"/>
<text xml:space="preserve" text-anchor="middle" x="1539.95" y="-436.41" font-family="Helvetica,sans-Serif" font-size="10.00" fill="#6b4e9e">authors policy once</text>
</g>
<!-- planner -->
<g id="node3" class="node">
<title>planner</title>
<path fill="#f6e0d6" stroke="#c2613f" stroke-width="1.3" d="M312.04,-307.13C312.04,-307.13 158.62,-307.13 158.62,-307.13 152.62,-307.13 146.62,-301.13 146.62,-295.13 146.62,-295.13 146.62,-248.6 146.62,-248.6 146.62,-242.6 152.62,-236.6 158.62,-236.6 158.62,-236.6 312.04,-236.6 312.04,-236.6 318.04,-236.6 324.04,-242.6 324.04,-248.6 324.04,-248.6 324.04,-295.13 324.04,-295.13 324.04,-301.13 318.04,-307.13 312.04,-307.13"/>
<text xml:space="preserve" text-anchor="middle" x="235.33" y="-287.09" font-family="Helvetica,sans-Serif" font-size="12.00" fill="#7a3a22">Planner</text>
<text xml:space="preserve" text-anchor="middle" x="235.33" y="-274.34" font-family="Helvetica,sans-Serif" font-size="12.00" fill="#7a3a22">reads the ledger → picks the</text>
<text xml:space="preserve" text-anchor="middle" x="235.33" y="-259.34" font-family="Helvetica,sans-Serif" font-size="12.00" fill="#7a3a22">worst quality&#39;s fix&#45;batch</text>
<text xml:space="preserve" text-anchor="middle" x="235.33" y="-246.59" font-family="Helvetica,sans-Serif" font-size="12.00" fill="#7a3a22">(skips dead fixes)</text>
</g>
<!-- controller&#45;&gt;planner -->
<g id="edge2" class="edge">
<title>controller&#45;&gt;planner</title>
<path fill="none" stroke="#9a9182" stroke-width="1.4" d="M1192.93,-383.79C1007.94,-375.98 662.13,-355.8 371.33,-307.13 359.9,-305.22 348.01,-302.83 336.23,-300.21"/>
<polygon fill="#9a9182" stroke="#9a9182" stroke-width="1.4" points="337.11,-296.82 326.58,-298 335.55,-303.65 337.11,-296.82"/>
<text xml:space="preserve" text-anchor="middle" x="650.09" y="-333.63" font-family="Helvetica,sans-Serif" font-size="10.00" fill="#6b6357">continue</text>
</g>
<!-- done -->
<g id="node9" class="node">
<title>done</title>
<path fill="#e1efe3" stroke="#4f8a5b" stroke-width="1.3" d="M1252.92,-289.87C1252.92,-289.87 1113.75,-289.87 1113.75,-289.87 1107.75,-289.87 1101.75,-283.87 1101.75,-277.87 1101.75,-277.87 1101.75,-265.87 1101.75,-265.87 1101.75,-259.87 1107.75,-253.87 1113.75,-253.87 1113.75,-253.87 1252.92,-253.87 1252.92,-253.87 1258.92,-253.87 1264.92,-259.87 1264.92,-265.87 1264.92,-265.87 1264.92,-277.87 1264.92,-277.87 1264.92,-283.87 1258.92,-289.87 1252.92,-289.87"/>
<text xml:space="preserve" text-anchor="middle" x="1183.34" y="-267.97" font-family="Helvetica,sans-Serif" font-size="12.00" fill="#2e5a38">Done → return best&#45;so&#45;far</text>
</g>
<!-- controller&#45;&gt;done -->
<g id="edge11" class="edge">
<title>controller&#45;&gt;done</title>
<path fill="none" stroke="#9a9182" stroke-width="1.4" d="M1299.29,-367.11C1275.29,-347.6 1239.66,-318.64 1214.23,-297.98"/>
<polygon fill="#9a9182" stroke="#9a9182" stroke-width="1.4" points="1216.64,-295.43 1206.68,-291.84 1212.23,-300.86 1216.64,-295.43"/>
<text xml:space="preserve" text-anchor="middle" x="1318.8" y="-333.63" font-family="Helvetica,sans-Serif" font-size="10.00" fill="#6b6357">score ≥ bar / budget out</text>
</g>
<!-- escalate -->
<g id="node10" class="node">
<title>escalate</title>
<path fill="#ece3f5" stroke="#6b4e9e" stroke-width="1.3" d="M1868.92,-293.26C1868.92,-293.26 1681.75,-293.26 1681.75,-293.26 1675.75,-293.26 1669.75,-287.26 1669.75,-281.26 1669.75,-281.26 1669.75,-262.48 1669.75,-262.48 1669.75,-256.48 1675.75,-250.48 1681.75,-250.48 1681.75,-250.48 1868.92,-250.48 1868.92,-250.48 1874.92,-250.48 1880.92,-256.48 1880.92,-262.48 1880.92,-262.48 1880.92,-281.26 1880.92,-281.26 1880.92,-287.26 1874.92,-293.26 1868.92,-293.26"/>
<text xml:space="preserve" text-anchor="middle" x="1775.34" y="-273.22" font-family="Helvetica,sans-Serif" font-size="12.00" fill="#3f2e63">Escalate to you</text>
<text xml:space="preserve" text-anchor="middle" x="1775.34" y="-260.47" font-family="Helvetica,sans-Serif" font-size="12.00" fill="#3f2e63">plateau · regression · real taste fork</text>
</g>
<!-- controller&#45;&gt;escalate -->
<g id="edge12" class="edge">
<title>controller&#45;&gt;escalate</title>
<path fill="none" stroke="#9a9182" stroke-width="1.4" d="M1414.62,-366.98C1480.69,-351.04 1572.8,-328.4 1653.34,-307.13 1665.39,-303.95 1678.08,-300.5 1690.54,-297.05"/>
<polygon fill="#9a9182" stroke="#9a9182" stroke-width="1.4" points="1691.15,-300.52 1699.85,-294.47 1689.28,-293.77 1691.15,-300.52"/>
<text xml:space="preserve" text-anchor="middle" x="1609.89" y="-333.63" font-family="Helvetica,sans-Serif" font-size="10.00" fill="#6b6357">plateau · regression · fork</text>
</g>
<!-- maca -->
<g id="node11" class="node">
<title>maca</title>
<polygon fill="#fffdf8" stroke="#d8d2c7" stroke-width="1.3" points="1631.42,-297.38 1297.25,-297.38 1297.25,-246.35 1637.42,-246.35 1637.42,-291.38 1631.42,-297.38"/>
<polyline fill="none" stroke="#d8d2c7" stroke-width="1.3" points="1631.42,-297.38 1631.42,-291.38"/>
<polyline fill="none" stroke="#d8d2c7" stroke-width="1.3" points="1637.42,-291.38 1631.42,-291.38"/>
<text xml:space="preserve" text-anchor="middle" x="1467.34" y="-279.24" font-family="Helvetica,sans-Serif" font-size="10.00" fill="#6b6357">Optimises the WORST quality + the deltas — never the sum.</text>
<text xml:space="preserve" text-anchor="middle" x="1467.34" y="-267.99" font-family="Helvetica,sans-Serif" font-size="10.00" fill="#6b6357">Rejects any pass that drops a quality below best&#45;so&#45;far (no A&#45;breaks&#45;B).</text>
<text xml:space="preserve" text-anchor="middle" x="1467.34" y="-256.74" font-family="Helvetica,sans-Serif" font-size="10.00" fill="#6b6357">The &#39;after&#39; is always a real render of real HTML — never an AI dream.</text>
</g>
<!-- controller&#45;&gt;maca -->
<!-- maker -->
<g id="node4" class="node">
<title>maker</title>
<path fill="#f6e0d6" stroke="#c2613f" stroke-width="1.3" d="M561.54,-300.76C561.54,-300.76 399.12,-300.76 399.12,-300.76 393.12,-300.76 387.12,-294.76 387.12,-288.76 387.12,-288.76 387.12,-254.98 387.12,-254.98 387.12,-248.98 393.12,-242.98 399.12,-242.98 399.12,-242.98 561.54,-242.98 561.54,-242.98 567.54,-242.98 573.54,-248.98 573.54,-254.98 573.54,-254.98 573.54,-288.76 573.54,-288.76 573.54,-294.76 567.54,-300.76 561.54,-300.76"/>
<text xml:space="preserve" text-anchor="middle" x="480.33" y="-280.72" font-family="Helvetica,sans-Serif" font-size="12.00" fill="#7a3a22">Maker</text>
<text xml:space="preserve" text-anchor="middle" x="480.33" y="-267.97" font-family="Helvetica,sans-Serif" font-size="12.00" fill="#7a3a22">applies the fixes → real HTML</text>
<text xml:space="preserve" text-anchor="middle" x="480.33" y="-252.97" font-family="Helvetica,sans-Serif" font-size="12.00" fill="#7a3a22">(never sees the rubric)</text>
</g>
<!-- planner&#45;&gt;maker -->
<g id="edge3" class="edge">
<title>planner&#45;&gt;maker</title>
<path fill="none" stroke="#9a9182" stroke-width="1.4" d="M324.34,-271.87C341.17,-271.87 358.01,-271.87 374.84,-271.87"/>
<polygon fill="#9a9182" stroke="#9a9182" stroke-width="1.4" points="374.37,-275.37 384.37,-271.87 374.37,-268.37 374.37,-275.37"/>
</g>
<!-- render -->
<g id="node5" class="node">
<title>render</title>
<path fill="#ececec" stroke="#707070" stroke-width="1.3" d="M811.55,-294.38C811.55,-294.38 649.12,-294.38 649.12,-294.38 643.12,-294.38 637.12,-288.38 637.12,-282.38 637.12,-282.38 637.12,-261.35 637.12,-261.35 637.12,-255.35 643.12,-249.35 649.12,-249.35 649.12,-249.35 811.55,-249.35 811.55,-249.35 817.55,-249.35 823.55,-255.35 823.55,-261.35 823.55,-261.35 823.55,-282.38 823.55,-282.38 823.55,-288.38 817.55,-294.38 811.55,-294.38"/>
<text xml:space="preserve" text-anchor="middle" x="730.34" y="-274.34" font-family="Helvetica,sans-Serif" font-size="12.00">Render in a sandboxed iframe</text>
<text xml:space="preserve" text-anchor="middle" x="730.34" y="-261.59" font-family="Helvetica,sans-Serif" font-size="12.00">→ screenshot</text>
</g>
<!-- maker&#45;&gt;render -->
<g id="edge4" class="edge">
<title>maker&#45;&gt;render</title>
<path fill="none" stroke="#9a9182" stroke-width="1.4" d="M574.09,-271.87C591.03,-271.87 607.97,-271.87 624.92,-271.87"/>
<polygon fill="#9a9182" stroke="#9a9182" stroke-width="1.4" points="624.53,-275.37 634.53,-271.87 624.53,-268.37 624.53,-275.37"/>
</g>
<!-- lints -->
<g id="node6" class="node">
<title>lints</title>
<path fill="#ececec" stroke="#707070" stroke-width="1.3" d="M1057.3,-306.01C1057.3,-306.01 899.38,-306.01 899.38,-306.01 893.38,-306.01 887.38,-300.01 887.38,-294.01 887.38,-294.01 887.38,-249.73 887.38,-249.73 887.38,-243.73 893.38,-237.73 899.38,-237.73 899.38,-237.73 1057.3,-237.73 1057.3,-237.73 1063.3,-237.73 1069.3,-243.73 1069.3,-249.73 1069.3,-249.73 1069.3,-294.01 1069.3,-294.01 1069.3,-300.01 1063.3,-306.01 1057.3,-306.01"/>
<text xml:space="preserve" text-anchor="middle" x="978.34" y="-285.97" font-family="Helvetica,sans-Serif" font-size="12.00">Objective lints (un&#45;gameable)</text>
<text xml:space="preserve" text-anchor="middle" x="978.34" y="-273.22" font-family="Helvetica,sans-Serif" font-size="12.00">renders&#45;ok · contrast · focus ·</text>
<text xml:space="preserve" text-anchor="middle" x="978.34" y="-260.47" font-family="Helvetica,sans-Serif" font-size="12.00">DOM bloat · text&#45;to&#45;chrome</text>
<text xml:space="preserve" text-anchor="middle" x="978.34" y="-247.72" font-family="Helvetica,sans-Serif" font-size="12.00">— hard gate</text>
</g>
<!-- render&#45;&gt;lints -->
<g id="edge5" class="edge">
<title>render&#45;&gt;lints</title>
<path fill="none" stroke="#9a9182" stroke-width="1.4" d="M823.82,-271.87C840.9,-271.87 857.98,-271.87 875.07,-271.87"/>
<polygon fill="#9a9182" stroke="#9a9182" stroke-width="1.4" points="874.77,-275.37 884.77,-271.87 874.77,-268.37 874.77,-275.37"/>
</g>
<!-- lints&#45;&gt;controller -->
<g id="edge10" class="edge">
<title>lints&#45;&gt;controller</title>
<path fill="none" stroke="#c2613f" stroke-width="1.4" stroke-dasharray="5,2" d="M1069.79,-305.68C1104.61,-317.96 1144.71,-331.84 1181.34,-343.88 1201.27,-350.44 1222.84,-357.24 1243.08,-363.5"/>
<polygon fill="#c2613f" stroke="#c2613f" stroke-width="1.4" points="1241.88,-366.79 1252.46,-366.39 1243.94,-360.1 1241.88,-366.79"/>
<text xml:space="preserve" text-anchor="middle" x="1215.84" y="-334.38" font-family="Helvetica,sans-Serif" font-size="10.00" fill="#c2613f">broken → reject</text>
</g>
<!-- judge -->
<g id="node7" class="node">
<title>judge</title>
<path fill="#d9ecea" stroke="#2f6f6a" stroke-width="1.3" d="M2113.3,-299.63C2113.3,-299.63 1925.38,-299.63 1925.38,-299.63 1919.38,-299.63 1913.38,-293.63 1913.38,-287.63 1913.38,-287.63 1913.38,-256.1 1913.38,-256.1 1913.38,-250.1 1919.38,-244.1 1925.38,-244.1 1925.38,-244.1 2113.3,-244.1 2113.3,-244.1 2119.3,-244.1 2125.3,-250.1 2125.3,-256.1 2125.3,-256.1 2125.3,-287.63 2125.3,-287.63 2125.3,-293.63 2119.3,-299.63 2113.3,-299.63"/>
<text xml:space="preserve" text-anchor="middle" x="2019.34" y="-279.59" font-family="Helvetica,sans-Serif" font-size="12.00" fill="#1e4f4a">Judge — frozen rubric</text>
<text xml:space="preserve" text-anchor="middle" x="2019.34" y="-266.84" font-family="Helvetica,sans-Serif" font-size="12.00" fill="#1e4f4a">scores the 8 qualities from the</text>
<text xml:space="preserve" text-anchor="middle" x="2019.34" y="-254.09" font-family="Helvetica,sans-Serif" font-size="12.00" fill="#1e4f4a">picture only (never sees the maker)</text>
</g>
<!-- lints&#45;&gt;judge -->
<g id="edge6" class="edge">
<title>lints&#45;&gt;judge</title>
<path fill="none" stroke="#9a9182" stroke-width="1.4" d="M1029.9,-306.65C1051.08,-318.96 1076.44,-331.28 1101.34,-337.51 1269.49,-379.57 1712.26,-375.67 1881.34,-337.51 1909.4,-331.17 1938.45,-318.43 1962.62,-305.84"/>
<polygon fill="#9a9182" stroke="#9a9182" stroke-width="1.4" points="1963.98,-309.08 1971.14,-301.28 1960.67,-302.91 1963.98,-309.08"/>
</g>
<!-- ledger -->
<g id="node8" class="node">
<title>ledger</title>
<path fill="#ececec" stroke="#707070" stroke-width="1.3" d="M176.67,-170.41C176.67,-174.24 137.08,-177.35 88.33,-177.35 39.59,-177.35 0,-174.24 0,-170.41 0,-170.41 0,-107.94 0,-107.94 0,-104.11 39.59,-101 88.33,-101 137.08,-101 176.67,-104.11 176.67,-107.94 176.67,-107.94 176.67,-170.41 176.67,-170.41"/>
<path fill="none" stroke="#707070" stroke-width="1.3" d="M176.67,-170.41C176.67,-166.58 137.08,-163.47 88.33,-163.47 39.59,-163.47 0,-166.58 0,-170.41"/>
<text xml:space="preserve" text-anchor="middle" x="88.33" y="-146.9" font-family="Helvetica,sans-Serif" font-size="12.00">Ledger (append&#45;only)</text>
<text xml:space="preserve" text-anchor="middle" x="88.33" y="-134.15" font-family="Helvetica,sans-Serif" font-size="12.00">every pass: scores · fixes · Δ</text>
<text xml:space="preserve" text-anchor="middle" x="88.33" y="-121.4" font-family="Helvetica,sans-Serif" font-size="12.00">— the memory</text>
</g>
<!-- judge&#45;&gt;ledger -->
<g id="edge7" class="edge">
<title>judge&#45;&gt;ledger</title>
<path fill="none" stroke="#9a9182" stroke-width="1.4" d="M1932.29,-243.47C1920.64,-240.68 1908.77,-238.26 1897.34,-236.6 1802.1,-222.81 254.55,-248.68 165.33,-212.6 150.83,-206.74 137.44,-196.74 126.04,-186.02"/>
<polygon fill="#9a9182" stroke="#9a9182" stroke-width="1.4" points="128.78,-183.81 119.23,-179.23 123.84,-188.77 128.78,-183.81"/>
</g>
<!-- ledger&#45;&gt;controller -->
<g id="edge8" class="edge">
<title>ledger&#45;&gt;controller</title>
<path fill="none" stroke="#9a9182" stroke-width="1.4" d="M74.09,-177.92C62.57,-215.64 52.92,-272.84 84.58,-307.13 121.29,-346.89 861.92,-374.15 1181.07,-384.1"/>
<polygon fill="#9a9182" stroke="#9a9182" stroke-width="1.4" points="1180.95,-387.6 1191.05,-384.41 1181.16,-380.6 1180.95,-387.6"/>
<text xml:space="preserve" text-anchor="middle" x="107.46" y="-267.99" font-family="Helvetica,sans-Serif" font-size="10.00" fill="#6b6357">scores · Δ</text>
</g>
<!-- ledger&#45;&gt;planner -->
<g id="edge9" class="edge">
<title>ledger&#45;&gt;planner</title>
<path fill="none" stroke="#9a9182" stroke-width="1.4" stroke-dasharray="5,2" d="M130.62,-177.77C148.33,-193.52 169.01,-211.9 187.29,-228.16"/>
<polygon fill="#9a9182" stroke="#9a9182" stroke-width="1.4" points="184.95,-230.75 194.74,-234.78 189.6,-225.52 184.95,-230.75"/>
<text xml:space="preserve" text-anchor="middle" x="197.37" y="-203.1" font-family="Helvetica,sans-Serif" font-size="10.00" fill="#6b6357">reads memory</text>
</g>
<!-- escalate&#45;&gt;human -->
<g id="edge13" class="edge">
<title>escalate&#45;&gt;human</title>
<path fill="none" stroke="#6b4e9e" stroke-width="1.4" stroke-dasharray="5,2" d="M1763.39,-293.65C1741.34,-332 1694.16,-414.06 1668.27,-459.11"/>
<polygon fill="#6b4e9e" stroke="#6b4e9e" stroke-width="1.4" points="1665.33,-457.2 1663.38,-467.62 1671.39,-460.69 1665.33,-457.2"/>
</g>
<!-- k_h -->
<g id="node12" class="node">
<title>k_h</title>
<path fill="#ece3f5" stroke="#6b4e9e" stroke-width="1.3" d="M2277.05,-509.3C2277.05,-509.3 2171.62,-509.3 2171.62,-509.3 2165.62,-509.3 2159.62,-503.3 2159.62,-497.3 2159.62,-497.3 2159.62,-485.3 2159.62,-485.3 2159.62,-479.3 2165.62,-473.3 2171.62,-473.3 2171.62,-473.3 2277.05,-473.3 2277.05,-473.3 2283.05,-473.3 2289.05,-479.3 2289.05,-485.3 2289.05,-485.3 2289.05,-497.3 2289.05,-497.3 2289.05,-503.3 2283.05,-509.3 2277.05,-509.3"/>
<text xml:space="preserve" text-anchor="middle" x="2224.34" y="-487.43" font-family="Helvetica,sans-Serif" font-size="10.00">you (policy / escalation)</text>
</g>
<!-- k_j -->
<g id="node13" class="node">
<title>k_j</title>
<path fill="#d9ecea" stroke="#2f6f6a" stroke-width="1.3" d="M2268.42,-407.27C2268.42,-407.27 2180.25,-407.27 2180.25,-407.27 2174.25,-407.27 2168.25,-401.27 2168.25,-395.27 2168.25,-395.27 2168.25,-383.27 2168.25,-383.27 2168.25,-377.27 2174.25,-371.27 2180.25,-371.27 2180.25,-371.27 2268.42,-371.27 2268.42,-371.27 2274.42,-371.27 2280.42,-377.27 2280.42,-383.27 2280.42,-383.27 2280.42,-395.27 2280.42,-395.27 2280.42,-401.27 2274.42,-407.27 2268.42,-407.27"/>
<text xml:space="preserve" text-anchor="middle" x="2224.34" y="-385.4" font-family="Helvetica,sans-Serif" font-size="10.00">judge (frozen rubric)</text>
</g>
<!-- k_h&#45;&gt;k_j -->
<!-- k_g -->
<g id="node14" class="node">
<title>k_g</title>
<path fill="#f6e0d6" stroke="#c2613f" stroke-width="1.3" d="M2279.67,-289.87C2279.67,-289.87 2169,-289.87 2169,-289.87 2163,-289.87 2157,-283.87 2157,-277.87 2157,-277.87 2157,-265.87 2157,-265.87 2157,-259.87 2163,-253.87 2169,-253.87 2169,-253.87 2279.67,-253.87 2279.67,-253.87 2285.67,-253.87 2291.67,-259.87 2291.67,-265.87 2291.67,-265.87 2291.67,-277.87 2291.67,-277.87 2291.67,-283.87 2285.67,-289.87 2279.67,-289.87"/>
<text xml:space="preserve" text-anchor="middle" x="2224.34" y="-267.99" font-family="Helvetica,sans-Serif" font-size="10.00">makers (planner · maker)</text>
</g>
<!-- k_j&#45;&gt;k_g -->
<!-- k_i -->
<g id="node15" class="node">
<title>k_i</title>
<path fill="#ececec" stroke="#707070" stroke-width="1.3" d="M2283.05,-157.18C2283.05,-157.18 2165.62,-157.18 2165.62,-157.18 2159.62,-157.18 2153.62,-151.18 2153.62,-145.18 2153.62,-145.18 2153.62,-133.18 2153.62,-133.18 2153.62,-127.18 2159.62,-121.18 2165.62,-121.18 2165.62,-121.18 2283.05,-121.18 2283.05,-121.18 2289.05,-121.18 2295.05,-127.18 2295.05,-133.18 2295.05,-133.18 2295.05,-145.18 2295.05,-145.18 2295.05,-151.18 2289.05,-157.18 2283.05,-157.18"/>
<text xml:space="preserve" text-anchor="middle" x="2224.34" y="-135.3" font-family="Helvetica,sans-Serif" font-size="10.00">deterministic infrastructure</text>
</g>
<!-- k_g&#45;&gt;k_i -->
<!-- k_d -->
<g id="node16" class="node">
<title>k_d</title>
<path fill="#e1efe3" stroke="#4f8a5b" stroke-width="1.3" d="M2239.34,-52C2239.34,-52 2209.34,-52 2209.34,-52 2203.34,-52 2197.34,-46 2197.34,-40 2197.34,-40 2197.34,-28 2197.34,-28 2197.34,-22 2203.34,-16 2209.34,-16 2209.34,-16 2239.34,-16 2239.34,-16 2245.34,-16 2251.34,-22 2251.34,-28 2251.34,-28 2251.34,-40 2251.34,-40 2251.34,-46 2245.34,-52 2239.34,-52"/>
<text xml:space="preserve" text-anchor="middle" x="2224.34" y="-30.12" font-family="Helvetica,sans-Serif" font-size="10.00">exit</text>
</g>
<!-- k_i&#45;&gt;k_d -->
</g>
</svg>
