<?xml version="1.0" encoding="UTF-8" standalone="no"?>
<!DOCTYPE svg PUBLIC "-//W3C//DTD SVG 1.1//EN"
 "http://www.w3.org/Graphics/SVG/1.1/DTD/svg11.dtd">
<!-- Generated by graphviz version 14.1.3 (20260303.0454)
 -->
<!-- Title: design_loop Pages: 1 -->
<svg width="1901pt" height="254pt"
 viewBox="0.00 0.00 1901.00 254.00" xmlns="http://www.w3.org/2000/svg" xmlns:xlink="http://www.w3.org/1999/xlink">
<g id="graph0" class="graph" transform="scale(1 1) rotate(0) translate(32.4 221.73)">
<title>design_loop</title>
<polygon fill="white" stroke="none" points="-32.4,32.4 -32.4,-221.73 1868.49,-221.73 1868.49,32.4 -32.4,32.4"/>
<text xml:space="preserve" text-anchor="start" x="730.54" y="-165.43" font-family="Helvetica,sans-Serif" font-weight="bold" font-size="22.00" fill="#1a1a1a">How the design judge works (today)</text>
<text xml:space="preserve" text-anchor="start" x="778.17" y="-151.98" font-family="Helvetica,sans-Serif" font-size="13.00" fill="#6b6357">One pass — you decide whether to run it again</text>
<!-- share -->
<g id="node1" class="node">
<title>share</title>
<path fill="#ece7dd" stroke="#d8d2c7" stroke-width="1.2" d="M134.43,-146.33C134.43,-146.33 12,-146.33 12,-146.33 6,-146.33 0,-140.33 0,-134.33 0,-134.33 0,-94.79 0,-94.79 0,-88.79 6,-82.79 12,-82.79 12,-82.79 134.43,-82.79 134.43,-82.79 140.43,-82.79 146.43,-88.79 146.43,-94.79 146.43,-94.79 146.43,-134.33 146.43,-134.33 146.43,-140.33 140.43,-146.33 134.43,-146.33"/>
<text xml:space="preserve" text-anchor="middle" x="73.21" y="-122.46" font-family="Helvetica,sans-Serif" font-size="13.00" fill="#1a1a1a">You share a design</text>
<text xml:space="preserve" text-anchor="middle" x="73.21" y="-108.96" font-family="Helvetica,sans-Serif" font-size="13.00" fill="#1a1a1a">(web page, link,</text>
<text xml:space="preserve" text-anchor="middle" x="73.21" y="-95.46" font-family="Helvetica,sans-Serif" font-size="13.00" fill="#1a1a1a">or screenshot)</text>
</g>
<!-- pic1 -->
<g id="node2" class="node">
<title>pic1</title>
<path fill="#f5f2ec" stroke="#d8d2c7" stroke-width="1.2" d="M341.36,-132.83C341.36,-132.83 217.43,-132.83 217.43,-132.83 211.43,-132.83 205.43,-126.83 205.43,-120.83 205.43,-120.83 205.43,-108.29 205.43,-108.29 205.43,-102.29 211.43,-96.29 217.43,-96.29 217.43,-96.29 341.36,-96.29 341.36,-96.29 347.36,-96.29 353.36,-102.29 353.36,-108.29 353.36,-108.29 353.36,-120.83 353.36,-120.83 353.36,-126.83 347.36,-132.83 341.36,-132.83"/>
<text xml:space="preserve" text-anchor="middle" x="279.39" y="-108.96" font-family="Helvetica,sans-Serif" font-size="13.00" fill="#1a1a1a">Takes a picture of it</text>
</g>
<!-- share&#45;&gt;pic1 -->
<g id="edge1" class="edge">
<title>share&#45;&gt;pic1</title>
<path fill="none" stroke="#9a9182" stroke-width="1.5" d="M146.78,-114.56C162.29,-114.56 178.8,-114.56 194.7,-114.56"/>
<polygon fill="#9a9182" stroke="#9a9182" stroke-width="1.5" points="194.26,-117.53 202.76,-114.56 194.26,-111.58 194.26,-117.53"/>
</g>
<!-- score -->
<g id="node3" class="node">
<title>score</title>
<path fill="#f1ddd2" stroke="#c2613f" stroke-width="1.2" d="M581.29,-139.58C581.29,-139.58 424.36,-139.58 424.36,-139.58 418.36,-139.58 412.36,-133.58 412.36,-127.58 412.36,-127.58 412.36,-101.54 412.36,-101.54 412.36,-95.54 418.36,-89.54 424.36,-89.54 424.36,-89.54 581.29,-89.54 581.29,-89.54 587.29,-89.54 593.29,-95.54 593.29,-101.54 593.29,-101.54 593.29,-127.58 593.29,-127.58 593.29,-133.58 587.29,-139.58 581.29,-139.58"/>
<text xml:space="preserve" text-anchor="middle" x="502.82" y="-115.71" font-family="Helvetica,sans-Serif" font-size="13.00" fill="#1a1a1a">Decides a score for each</text>
<text xml:space="preserve" text-anchor="middle" x="502.82" y="-102.21" font-family="Helvetica,sans-Serif" font-size="13.00" fill="#1a1a1a">of 8 qualities (0–4)</text>
</g>
<!-- pic1&#45;&gt;score -->
<g id="edge2" class="edge">
<title>pic1&#45;&gt;score</title>
<path fill="none" stroke="#9a9182" stroke-width="1.5" d="M353.82,-114.56C369.1,-114.56 385.46,-114.56 401.52,-114.56"/>
<polygon fill="#9a9182" stroke="#9a9182" stroke-width="1.5" points="401.25,-117.53 409.75,-114.56 401.25,-111.58 401.25,-117.53"/>
</g>
<!-- pick -->
<g id="node4" class="node">
<title>pick</title>
<path fill="#f1ddd2" stroke="#c2613f" stroke-width="1.2" d="M817.47,-139.58C817.47,-139.58 664.29,-139.58 664.29,-139.58 658.29,-139.58 652.29,-133.58 652.29,-127.58 652.29,-127.58 652.29,-101.54 652.29,-101.54 652.29,-95.54 658.29,-89.54 664.29,-89.54 664.29,-89.54 817.47,-89.54 817.47,-89.54 823.47,-89.54 829.47,-95.54 829.47,-101.54 829.47,-101.54 829.47,-127.58 829.47,-127.58 829.47,-133.58 823.47,-139.58 817.47,-139.58"/>
<text xml:space="preserve" text-anchor="middle" x="740.88" y="-115.71" font-family="Helvetica,sans-Serif" font-size="13.00" fill="#1a1a1a">Decides which problems</text>
<text xml:space="preserve" text-anchor="middle" x="740.88" y="-102.21" font-family="Helvetica,sans-Serif" font-size="13.00" fill="#1a1a1a">matter most to fix</text>
</g>
<!-- score&#45;&gt;pick -->
<g id="edge3" class="edge">
<title>score&#45;&gt;pick</title>
<path fill="none" stroke="#9a9182" stroke-width="1.5" d="M593.74,-114.56C609.2,-114.56 625.34,-114.56 641.01,-114.56"/>
<polygon fill="#9a9182" stroke="#9a9182" stroke-width="1.5" points="641,-117.53 649.5,-114.56 641,-111.58 641,-117.53"/>
</g>
<!-- rebuild -->
<g id="node5" class="node">
<title>rebuild</title>
<path fill="#f1ddd2" stroke="#c2613f" stroke-width="1.2" d="M1028.9,-139.58C1028.9,-139.58 900.47,-139.58 900.47,-139.58 894.47,-139.58 888.47,-133.58 888.47,-127.58 888.47,-127.58 888.47,-101.54 888.47,-101.54 888.47,-95.54 894.47,-89.54 900.47,-89.54 900.47,-89.54 1028.9,-89.54 1028.9,-89.54 1034.9,-89.54 1040.9,-95.54 1040.9,-101.54 1040.9,-101.54 1040.9,-127.58 1040.9,-127.58 1040.9,-133.58 1034.9,-139.58 1028.9,-139.58"/>
<text xml:space="preserve" text-anchor="middle" x="964.68" y="-115.71" font-family="Helvetica,sans-Serif" font-size="13.00" fill="#1a1a1a">Redesigns it into</text>
<text xml:space="preserve" text-anchor="middle" x="964.68" y="-102.21" font-family="Helvetica,sans-Serif" font-size="13.00" fill="#1a1a1a">an improved version</text>
</g>
<!-- pick&#45;&gt;rebuild -->
<g id="edge4" class="edge">
<title>pick&#45;&gt;rebuild</title>
<path fill="none" stroke="#9a9182" stroke-width="1.5" d="M829.86,-114.56C845.49,-114.56 861.75,-114.56 877.33,-114.56"/>
<polygon fill="#9a9182" stroke="#9a9182" stroke-width="1.5" points="877.22,-117.53 885.72,-114.56 877.22,-111.58 877.22,-117.53"/>
</g>
<!-- pic2 -->
<g id="node6" class="node">
<title>pic2</title>
<path fill="#f5f2ec" stroke="#d8d2c7" stroke-width="1.2" d="M1247.83,-139.58C1247.83,-139.58 1111.9,-139.58 1111.9,-139.58 1105.9,-139.58 1099.9,-133.58 1099.9,-127.58 1099.9,-127.58 1099.9,-101.54 1099.9,-101.54 1099.9,-95.54 1105.9,-89.54 1111.9,-89.54 1111.9,-89.54 1247.83,-89.54 1247.83,-89.54 1253.83,-89.54 1259.83,-95.54 1259.83,-101.54 1259.83,-101.54 1259.83,-127.58 1259.83,-127.58 1259.83,-133.58 1253.83,-139.58 1247.83,-139.58"/>
<text xml:space="preserve" text-anchor="middle" x="1179.86" y="-115.71" font-family="Helvetica,sans-Serif" font-size="13.00" fill="#1a1a1a">Takes a picture of the</text>
<text xml:space="preserve" text-anchor="middle" x="1179.86" y="-102.21" font-family="Helvetica,sans-Serif" font-size="13.00" fill="#1a1a1a">improved version</text>
</g>
<!-- rebuild&#45;&gt;pic2 -->
<g id="edge5" class="edge">
<title>rebuild&#45;&gt;pic2</title>
<path fill="none" stroke="#9a9182" stroke-width="1.5" d="M1041.44,-114.56C1056.86,-114.56 1073.21,-114.56 1089.06,-114.56"/>
<polygon fill="#9a9182" stroke="#9a9182" stroke-width="1.5" points="1088.61,-117.53 1097.11,-114.56 1088.61,-111.58 1088.61,-117.53"/>
</g>
<!-- report -->
<g id="node7" class="node">
<title>report</title>
<path fill="#2f6f6a" stroke="#24544f" stroke-width="1.2" d="M1507.26,-140.7C1507.26,-140.7 1330.83,-140.7 1330.83,-140.7 1324.83,-140.7 1318.83,-134.7 1318.83,-128.7 1318.83,-128.7 1318.83,-100.41 1318.83,-100.41 1318.83,-94.41 1324.83,-88.41 1330.83,-88.41 1330.83,-88.41 1507.26,-88.41 1507.26,-88.41 1513.26,-88.41 1519.26,-94.41 1519.26,-100.41 1519.26,-100.41 1519.26,-128.7 1519.26,-128.7 1519.26,-134.7 1513.26,-140.7 1507.26,-140.7"/>
<text xml:space="preserve" text-anchor="middle" x="1419.04" y="-116.83" font-family="Helvetica,sans-Serif" font-size="13.00" fill="white">Hands you a report:</text>
<text xml:space="preserve" text-anchor="middle" x="1419.04" y="-103.33" font-family="Helvetica,sans-Serif" font-size="13.00" fill="white">score · fixes · before → after</text>
</g>
<!-- pic2&#45;&gt;report -->
<g id="edge6" class="edge">
<title>pic2&#45;&gt;report</title>
<path fill="none" stroke="#9a9182" stroke-width="1.5" d="M1260.17,-114.56C1275.53,-114.56 1291.87,-114.56 1308.01,-114.56"/>
<polygon fill="#9a9182" stroke="#9a9182" stroke-width="1.5" points="1307.8,-117.53 1316.3,-114.56 1307.8,-111.58 1307.8,-117.53"/>
</g>
<!-- check -->
<g id="node8" class="node">
<title>check</title>
<path fill="#fbf6ee" stroke="#c2613f" stroke-width="1.2" d="M1627.23,-139.07C1627.23,-139.07 1588.99,-119.93 1588.99,-119.93 1583.63,-117.24 1583.63,-111.87 1588.99,-109.19 1588.99,-109.19 1627.23,-90.05 1627.23,-90.05 1632.59,-87.36 1643.33,-87.36 1648.69,-90.05 1648.69,-90.05 1686.93,-109.19 1686.93,-109.19 1692.29,-111.87 1692.29,-117.24 1686.93,-119.93 1686.93,-119.93 1648.69,-139.07 1648.69,-139.07 1643.33,-141.75 1632.59,-141.75 1627.23,-139.07"/>
<text xml:space="preserve" text-anchor="middle" x="1637.96" y="-115.71" font-family="Helvetica,sans-Serif" font-size="13.00" fill="#1a1a1a">Good</text>
<text xml:space="preserve" text-anchor="middle" x="1637.96" y="-102.21" font-family="Helvetica,sans-Serif" font-size="13.00" fill="#1a1a1a">enough?</text>
</g>
<!-- report&#45;&gt;check -->
<g id="edge7" class="edge">
<title>report&#45;&gt;check</title>
<path fill="none" stroke="#9a9182" stroke-width="1.5" d="M1519.61,-114.56C1535.39,-114.56 1551.41,-114.56 1566.35,-114.56"/>
<polygon fill="#9a9182" stroke="#9a9182" stroke-width="1.5" points="1566.23,-117.53 1574.73,-114.56 1566.23,-111.58 1566.23,-117.53"/>
</g>
<!-- check&#45;&gt;pic1 -->
<g id="edge9" class="edge">
<title>check&#45;&gt;pic1</title>
<path fill="none" stroke="#c2613f" stroke-width="1.5" stroke-dasharray="5,2" d="M1606.27,-100.08C1582.96,-89.84 1549.82,-76.84 1519.26,-70.56 1037.4,28.58 896.13,17.82 412.36,-71.56 387.38,-76.17 360.6,-84.27 337.74,-92.21"/>
<polygon fill="#c2613f" stroke="#c2613f" stroke-width="1.5" points="337.02,-89.31 330,-94.95 339.01,-94.92 337.02,-89.31"/>
<text xml:space="preserve" text-anchor="middle" x="964.68" y="-16.55" font-family="Helvetica,sans-Serif" font-size="11.00" fill="#c2613f">no — judge the</text>
<text xml:space="preserve" text-anchor="middle" x="964.68" y="-4.55" font-family="Helvetica,sans-Serif" font-size="11.00" fill="#c2613f">improved version</text>
</g>
<!-- done -->
<g id="node9" class="node">
<title>done</title>
<path fill="#e4ece0" stroke="#7fa487" stroke-width="1.2" d="M1824.09,-132.83C1824.09,-132.83 1784.16,-132.83 1784.16,-132.83 1778.16,-132.83 1772.16,-126.83 1772.16,-120.83 1772.16,-120.83 1772.16,-108.29 1772.16,-108.29 1772.16,-102.29 1778.16,-96.29 1784.16,-96.29 1784.16,-96.29 1824.09,-96.29 1824.09,-96.29 1830.09,-96.29 1836.09,-102.29 1836.09,-108.29 1836.09,-108.29 1836.09,-120.83 1836.09,-120.83 1836.09,-126.83 1830.09,-132.83 1824.09,-132.83"/>
<text xml:space="preserve" text-anchor="middle" x="1804.12" y="-108.96" font-family="Helvetica,sans-Serif" font-size="13.00" fill="#1a1a1a">Done</text>
</g>
<!-- check&#45;&gt;done -->
<g id="edge8" class="edge">
<title>check&#45;&gt;done</title>
<path fill="none" stroke="#9a9182" stroke-width="1.5" d="M1698.69,-114.56C1719.38,-114.56 1742.13,-114.56 1761.09,-114.56"/>
<polygon fill="#9a9182" stroke="#9a9182" stroke-width="1.5" points="1761.01,-117.53 1769.51,-114.56 1761.01,-111.58 1761.01,-117.53"/>
<text xml:space="preserve" text-anchor="middle" x="1734.91" y="-116.11" font-family="Helvetica,sans-Serif" font-size="11.00" fill="#6b6357">yes</text>
</g>
</g>
</svg>
